<svg width="143" height="29" viewBox="0 0 143 29" fill="none" xmlns="http://www.w3.org/2000/svg">
<path d="M16.1625 0V8.08095L10.7745 13.1428L11.0063 5.29171L1.27734 5.38796L6.73405 0H16.1625Z" fill="white"/>
<path d="M0 6.73438H9.42843V28.2842C4.22119 28.2842 0 24.063 0 18.8558V6.73438Z" fill="white"/>
<path d="M11.0059 14.8156L19.6859 23.4956C22.2709 26.0826 26.4508 26.1258 29.0908 23.5958L30.3047 22.433L16.7199 9.10156L11.0059 14.8156Z" fill="white"/>
<path d="M37.4555 19.1738V7.55712H42.4839C43.5239 7.55712 44.42 7.7286 45.1723 8.07157C45.9247 8.40348 46.5055 8.88474 46.9149 9.51537C47.3242 10.146 47.5289 10.8983 47.5289 11.7723C47.5289 12.6353 47.3242 13.3821 46.9149 14.0127C46.5055 14.6322 45.9247 15.108 45.1723 15.4399C44.42 15.7718 43.5239 15.9377 42.4839 15.9377H38.9491L40.144 14.7595V19.1738H37.4555ZM44.8404 19.1738L41.9363 14.9586H44.8073L47.7446 19.1738H44.8404ZM40.144 15.0582L38.9491 13.797H42.3346C43.1643 13.797 43.7839 13.6199 44.1932 13.2659C44.6026 12.9008 44.8073 12.4029 44.8073 11.7723C44.8073 11.1306 44.6026 10.6328 44.1932 10.2787C43.7839 9.92472 43.1643 9.7477 42.3346 9.7477H38.9491L40.144 8.46986V15.0582ZM52.1316 12.237H57.7242V14.328H52.1316V12.237ZM52.3308 17.0164H58.6536V19.1738H49.6589V7.55712H58.4378V9.71451H52.3308V17.0164ZM60.7927 19.1738V7.55712H63.0164L69.8703 15.9211H68.7916V7.55712H71.4469V19.1738H69.2397L62.3692 10.8098H63.4479V19.1738H60.7927ZM76.6016 19.1738V9.7477H72.8843V7.55712H83.0074V9.7477H79.2901V19.1738H76.6016ZM82.3437 19.1738L87.5215 7.55712H90.1767L95.371 19.1738H92.5498L88.3014 8.91793H89.3635L85.0986 19.1738H82.3437ZM84.9326 16.6845L85.6462 14.6433H91.6205L92.3507 16.6845H84.9326ZM96.5763 19.1738V7.55712H98.8001L103.745 15.7552H102.567L107.43 7.55712H109.637L109.67 19.1738H107.147L107.131 11.4238H107.596L103.712 17.9458H102.501L98.5345 11.4238H99.0988V19.1738H96.5763ZM115.463 19.373C114.655 19.373 113.853 19.2679 113.057 19.0577C112.26 18.8364 111.585 18.5266 111.032 18.1283L112.078 16.0705C112.52 16.3913 113.035 16.6458 113.621 16.8339C114.207 17.022 114.799 17.116 115.397 17.116C116.072 17.116 116.603 16.9832 116.99 16.7177C117.377 16.4522 117.571 16.0871 117.571 15.6224C117.571 15.1799 117.399 14.8314 117.056 14.5769C116.713 14.3225 116.16 14.1952 115.397 14.1952H114.169V12.4195L117.405 8.75198L117.703 9.71451H111.613V7.55712H119.745V9.29963L116.525 12.9672L115.164 12.1872H115.944C117.371 12.1872 118.45 12.5081 119.18 13.1497C119.911 13.7914 120.276 14.6157 120.276 15.6224C120.276 16.2752 120.104 16.8892 119.761 17.4645C119.418 18.0288 118.893 18.4879 118.185 18.8419C117.477 19.196 116.569 19.373 115.463 19.373ZM126.711 19.373C125.649 19.373 124.725 19.1517 123.94 18.7092C123.165 18.2666 122.568 17.6194 122.148 16.7675C121.727 15.9156 121.517 14.8646 121.517 13.6144C121.517 12.2757 121.766 11.1417 122.264 10.2124C122.773 9.28303 123.47 8.57496 124.355 8.08817C125.251 7.60137 126.28 7.35798 127.441 7.35798C128.061 7.35798 128.653 7.42436 129.217 7.55712C129.781 7.68988 130.268 7.88903 130.678 8.15455L129.682 10.1294C129.361 9.90812 129.018 9.75876 128.653 9.68132C128.288 9.59281 127.906 9.54856 127.508 9.54856C126.501 9.54856 125.704 9.8528 125.118 10.4613C124.532 11.0698 124.239 11.9715 124.239 13.1663C124.239 13.3655 124.239 13.5867 124.239 13.8301C124.25 14.0735 124.283 14.3169 124.338 14.5603L123.591 13.8633C123.802 13.4319 124.073 13.0723 124.405 12.7846C124.736 12.4859 125.129 12.2647 125.583 12.1208C126.047 11.9659 126.556 11.8885 127.11 11.8885C127.862 11.8885 128.537 12.0379 129.134 12.3366C129.732 12.6353 130.207 13.0557 130.561 13.5978C130.926 14.1399 131.109 14.7761 131.109 15.5063C131.109 16.2918 130.91 16.9777 130.512 17.5641C130.124 18.1394 129.599 18.5875 128.935 18.9083C128.282 19.2181 127.541 19.373 126.711 19.373ZM126.562 17.3649C126.938 17.3649 127.27 17.2986 127.558 17.1658C127.856 17.022 128.089 16.8173 128.255 16.5518C128.421 16.2862 128.504 15.982 128.504 15.639C128.504 15.108 128.321 14.6876 127.956 14.3778C127.602 14.0569 127.126 13.8965 126.529 13.8965C126.13 13.8965 125.782 13.974 125.483 14.1289C125.184 14.2727 124.947 14.4774 124.77 14.7429C124.604 14.9973 124.521 15.2961 124.521 15.639C124.521 15.9709 124.604 16.2697 124.77 16.5352C124.936 16.7896 125.168 16.9943 125.467 17.1492C125.765 17.293 126.13 17.3649 126.562 17.3649ZM137.062 19.373C136.111 19.373 135.259 19.1406 134.506 18.676C133.754 18.2002 133.162 17.5143 132.731 16.6182C132.299 15.722 132.083 14.6378 132.083 13.3655C132.083 12.0932 132.299 11.0089 132.731 10.1128C133.162 9.21665 133.754 8.53624 134.506 8.07157C135.259 7.59584 136.111 7.35798 137.062 7.35798C138.025 7.35798 138.876 7.59584 139.618 8.07157C140.37 8.53624 140.962 9.21665 141.393 10.1128C141.825 11.0089 142.041 12.0932 142.041 13.3655C142.041 14.6378 141.825 15.722 141.393 16.6182C140.962 17.5143 140.37 18.2002 139.618 18.676C138.876 19.1406 138.025 19.373 137.062 19.373ZM137.062 17.0994C137.516 17.0994 137.908 16.9722 138.24 16.7177C138.583 16.4633 138.849 16.0594 139.037 15.5063C139.236 14.9531 139.336 14.2395 139.336 13.3655C139.336 12.4915 139.236 11.7779 139.037 11.2247C138.849 10.6715 138.583 10.2677 138.24 10.0132C137.908 9.75876 137.516 9.63153 137.062 9.63153C136.62 9.63153 136.227 9.75876 135.884 10.0132C135.552 10.2677 135.286 10.6715 135.087 11.2247C134.899 11.7779 134.805 12.4915 134.805 13.3655C134.805 14.2395 134.899 14.9531 135.087 15.5063C135.286 16.0594 135.552 16.4633 135.884 16.7177C136.227 16.9722 136.62 17.0994 137.062 17.0994Z" fill="white"/>
</svg>
