<svg width="1080" height="572" viewBox="0 0 1080 572" fill="none" xmlns="http://www.w3.org/2000/svg">
<g clip-path="url(#clip0_743_15513)">
<mask id="path-3-inside-1_743_15513" fill="white">
<path d="M0 0H53.9771V53.9771H0V0Z"/>
</mask>
<path d="M53.9771 53.9771V54.5394H54.5394V53.9771H53.9771ZM53.9771 0H53.4148V53.9771H53.9771H54.5394V0H53.9771ZM53.9771 53.9771V53.4148H0V53.9771V54.5394H53.9771V53.9771Z" fill="#A0A0A0" fill-opacity="0.23" mask="url(#path-3-inside-1_743_15513)"/>
<mask id="path-5-inside-2_743_15513" fill="white">
<path d="M53.9766 0H107.954V53.9771H53.9766V0Z"/>
</mask>
<path d="M107.954 53.9771V54.5394H108.516V53.9771H107.954ZM107.954 0H107.391V53.9771H107.954H108.516V0H107.954ZM107.954 53.9771V53.4148H53.9766V53.9771V54.5394H107.954V53.9771Z" fill="#A0A0A0" fill-opacity="0.23" mask="url(#path-5-inside-2_743_15513)"/>
<mask id="path-7-inside-3_743_15513" fill="white">
<path d="M107.955 0H161.932V53.9771H107.955V0Z"/>
</mask>
<path d="M161.932 53.9771V54.5394H162.494V53.9771H161.932ZM161.932 0H161.37V53.9771H161.932H162.494V0H161.932ZM161.932 53.9771V53.4148H107.955V53.9771V54.5394H161.932V53.9771Z" fill="#A0A0A0" fill-opacity="0.23" mask="url(#path-7-inside-3_743_15513)"/>
<mask id="path-9-inside-4_743_15513" fill="white">
<path d="M161.932 0H215.909V53.9771H161.932V0Z"/>
</mask>
<path d="M215.909 53.9771V54.5394H216.471V53.9771H215.909ZM215.909 0H215.346V53.9771H215.909H216.471V0H215.909ZM215.909 53.9771V53.4148H161.932V53.9771V54.5394H215.909V53.9771Z" fill="#A0A0A0" fill-opacity="0.23" mask="url(#path-9-inside-4_743_15513)"/>
<mask id="path-11-inside-5_743_15513" fill="white">
<path d="M215.908 0H269.885V53.9771H215.908V0Z"/>
</mask>
<path d="M269.885 53.9771V54.5394H270.448V53.9771H269.885ZM269.885 0H269.323V53.9771H269.885H270.448V0H269.885ZM269.885 53.9771V53.4148H215.908V53.9771V54.5394H269.885V53.9771Z" fill="#A0A0A0" fill-opacity="0.23" mask="url(#path-11-inside-5_743_15513)"/>
<mask id="path-13-inside-6_743_15513" fill="white">
<path d="M269.885 0H323.862V53.9771H269.885V0Z"/>
</mask>
<path d="M323.862 53.9771V54.5394H324.424V53.9771H323.862ZM323.862 0H323.3V53.9771H323.862H324.424V0H323.862ZM323.862 53.9771V53.4148H269.885V53.9771V54.5394H323.862V53.9771Z" fill="#A0A0A0" fill-opacity="0.23" mask="url(#path-13-inside-6_743_15513)"/>
<mask id="path-15-inside-7_743_15513" fill="white">
<path d="M323.863 0H377.84V53.9771H323.863V0Z"/>
</mask>
<path d="M377.84 53.9771V54.5394H378.403V53.9771H377.84ZM377.84 0H377.278V53.9771H377.84H378.403V0H377.84ZM377.84 53.9771V53.4148H323.863V53.9771V54.5394H377.84V53.9771Z" fill="#A0A0A0" fill-opacity="0.23" mask="url(#path-15-inside-7_743_15513)"/>
<mask id="path-17-inside-8_743_15513" fill="white">
<path d="M377.84 0H431.817V53.9771H377.84V0Z"/>
</mask>
<path d="M431.817 53.9771V54.5394H432.379V53.9771H431.817ZM431.817 0H431.255V53.9771H431.817H432.379V0H431.817ZM431.817 53.9771V53.4148H377.84V53.9771V54.5394H431.817V53.9771Z" fill="#A0A0A0" fill-opacity="0.23" mask="url(#path-17-inside-8_743_15513)"/>
<mask id="path-19-inside-9_743_15513" fill="white">
<path d="M431.816 0H485.794V53.9771H431.816V0Z"/>
</mask>
<path d="M485.794 53.9771V54.5394H486.356V53.9771H485.794ZM485.794 0H485.231V53.9771H485.794H486.356V0H485.794ZM485.794 53.9771V53.4148H431.816V53.9771V54.5394H485.794V53.9771Z" fill="#A0A0A0" fill-opacity="0.23" mask="url(#path-19-inside-9_743_15513)"/>
<mask id="path-21-inside-10_743_15513" fill="white">
<path d="M485.795 0H539.772V53.9771H485.795V0Z"/>
</mask>
<path d="M539.772 53.9771V54.5394H540.334V53.9771H539.772ZM539.772 0H539.21V53.9771H539.772H540.334V0H539.772ZM539.772 53.9771V53.4148H485.795V53.9771V54.5394H539.772V53.9771Z" fill="#A0A0A0" fill-opacity="0.23" mask="url(#path-21-inside-10_743_15513)"/>
<mask id="path-23-inside-11_743_15513" fill="white">
<path d="M539.771 0H593.749V53.9771H539.771V0Z"/>
</mask>
<path d="M593.749 53.9771V54.5394H594.311V53.9771H593.749ZM593.749 0H593.186V53.9771H593.749H594.311V0H593.749ZM593.749 53.9771V53.4148H539.771V53.9771V54.5394H593.749V53.9771Z" fill="#A0A0A0" fill-opacity="0.23" mask="url(#path-23-inside-11_743_15513)"/>
<mask id="path-25-inside-12_743_15513" fill="white">
<path d="M593.748 0H647.725V53.9771H593.748V0Z"/>
</mask>
<path d="M647.725 53.9771V54.5394H648.287V53.9771H647.725ZM647.725 0H647.163V53.9771H647.725H648.287V0H647.725ZM647.725 53.9771V53.4148H593.748V53.9771V54.5394H647.725V53.9771Z" fill="#A0A0A0" fill-opacity="0.23" mask="url(#path-25-inside-12_743_15513)"/>
<mask id="path-27-inside-13_743_15513" fill="white">
<path d="M647.725 0H701.702V53.9771H647.725V0Z"/>
</mask>
<path d="M701.702 53.9771V54.5394H702.264V53.9771H701.702ZM701.702 0H701.139V53.9771H701.702H702.264V0H701.702ZM701.702 53.9771V53.4148H647.725V53.9771V54.5394H701.702V53.9771Z" fill="#A0A0A0" fill-opacity="0.23" mask="url(#path-27-inside-13_743_15513)"/>
<mask id="path-29-inside-14_743_15513" fill="white">
<path d="M701.703 0H755.68V53.9771H701.703V0Z"/>
</mask>
<path d="M755.68 53.9771V54.5394H756.243V53.9771H755.68ZM755.68 0H755.118V53.9771H755.68H756.243V0H755.68ZM755.68 53.9771V53.4148H701.703V53.9771V54.5394H755.68V53.9771Z" fill="#A0A0A0" fill-opacity="0.23" mask="url(#path-29-inside-14_743_15513)"/>
<mask id="path-31-inside-15_743_15513" fill="white">
<path d="M755.68 0H809.657V53.9771H755.68V0Z"/>
</mask>
<path d="M809.657 53.9771V54.5394H810.219V53.9771H809.657ZM809.657 0H809.095V53.9771H809.657H810.219V0H809.657ZM809.657 53.9771V53.4148H755.68V53.9771V54.5394H809.657V53.9771Z" fill="#A0A0A0" fill-opacity="0.23" mask="url(#path-31-inside-15_743_15513)"/>
<mask id="path-33-inside-16_743_15513" fill="white">
<path d="M809.656 0H863.633V53.9771H809.656V0Z"/>
</mask>
<path d="M863.633 53.9771V54.5394H864.196V53.9771H863.633ZM863.633 0H863.071V53.9771H863.633H864.196V0H863.633ZM863.633 53.9771V53.4148H809.656V53.9771V54.5394H863.633V53.9771Z" fill="#A0A0A0" fill-opacity="0.23" mask="url(#path-33-inside-16_743_15513)"/>
<mask id="path-35-inside-17_743_15513" fill="white">
<path d="M863.633 0H917.61V53.9771H863.633V0Z"/>
</mask>
<path d="M917.61 53.9771V54.5394H918.172V53.9771H917.61ZM917.61 0H917.048V53.9771H917.61H918.172V0H917.61ZM917.61 53.9771V53.4148H863.633V53.9771V54.5394H917.61V53.9771Z" fill="#A0A0A0" fill-opacity="0.23" mask="url(#path-35-inside-17_743_15513)"/>
<mask id="path-37-inside-18_743_15513" fill="white">
<path d="M917.611 0H971.588V53.9771H917.611V0Z"/>
</mask>
<path d="M971.588 53.9771V54.5394H972.151V53.9771H971.588ZM971.588 0H971.026V53.9771H971.588H972.151V0H971.588ZM971.588 53.9771V53.4148H917.611V53.9771V54.5394H971.588V53.9771Z" fill="#A0A0A0" fill-opacity="0.23" mask="url(#path-37-inside-18_743_15513)"/>
<mask id="path-39-inside-19_743_15513" fill="white">
<path d="M971.588 0H1025.57V53.9771H971.588V0Z"/>
</mask>
<path d="M1025.57 53.9771V54.5394H1026.13V53.9771H1025.57ZM1025.57 0H1025V53.9771H1025.57H1026.13V0H1025.57ZM1025.57 53.9771V53.4148H971.588V53.9771V54.5394H1025.57V53.9771Z" fill="#A0A0A0" fill-opacity="0.23" mask="url(#path-39-inside-19_743_15513)"/>
<mask id="path-41-inside-20_743_15513" fill="white">
<path d="M1025.56 0H1079.54V53.9771H1025.56V0Z"/>
</mask>
<path d="M1079.54 53.9771V54.5394H1080.1V53.9771H1079.54ZM1079.54 0H1078.98V53.9771H1079.54H1080.1V0H1079.54ZM1079.54 53.9771V53.4148H1025.56V53.9771V54.5394H1079.54V53.9771Z" fill="#A0A0A0" fill-opacity="0.23" mask="url(#path-41-inside-20_743_15513)"/>
<mask id="path-43-inside-21_743_15513" fill="white">
<path d="M0 53.9771H53.9771V107.954H0V53.9771Z"/>
</mask>
<path d="M53.9771 107.954V108.516H54.5394V107.954H53.9771ZM53.9771 53.9771H53.4148V107.954H53.9771H54.5394V53.9771H53.9771ZM53.9771 107.954V107.392H0V107.954V108.516H53.9771V107.954Z" fill="#A0A0A0" fill-opacity="0.23" mask="url(#path-43-inside-21_743_15513)"/>
<mask id="path-45-inside-22_743_15513" fill="white">
<path d="M53.9766 53.9771H107.954V107.954H53.9766V53.9771Z"/>
</mask>
<path d="M107.954 107.954V108.516H108.516V107.954H107.954ZM107.954 53.9771H107.391V107.954H107.954H108.516V53.9771H107.954ZM107.954 107.954V107.392H53.9766V107.954V108.516H107.954V107.954Z" fill="#A0A0A0" fill-opacity="0.23" mask="url(#path-45-inside-22_743_15513)"/>
<mask id="path-47-inside-23_743_15513" fill="white">
<path d="M107.955 53.9771H161.932V107.954H107.955V53.9771Z"/>
</mask>
<path d="M161.932 107.954V108.516H162.494V107.954H161.932ZM161.932 53.9771H161.37V107.954H161.932H162.494V53.9771H161.932ZM161.932 107.954V107.392H107.955V107.954V108.516H161.932V107.954Z" fill="#A0A0A0" fill-opacity="0.23" mask="url(#path-47-inside-23_743_15513)"/>
<mask id="path-49-inside-24_743_15513" fill="white">
<path d="M161.932 53.9771H215.909V107.954H161.932V53.9771Z"/>
</mask>
<path d="M215.909 107.954V108.516H216.471V107.954H215.909ZM215.909 53.9771H215.346V107.954H215.909H216.471V53.9771H215.909ZM215.909 107.954V107.392H161.932V107.954V108.516H215.909V107.954Z" fill="#A0A0A0" fill-opacity="0.23" mask="url(#path-49-inside-24_743_15513)"/>
<g clip-path="url(#clip1_743_15513)">
<mask id="path-51-inside-25_743_15513" fill="white">
<path d="M215.908 53.9771H269.885V107.954H215.908V53.9771Z"/>
</mask>
<circle cx="321.05" cy="120.324" r="65.2223" fill="#A0A0A0" fill-opacity="0.05"/>
</g>
<path d="M269.885 107.954V108.516H270.448V107.954H269.885ZM269.885 53.9771H269.323V107.954H269.885H270.448V53.9771H269.885ZM269.885 107.954V107.392H215.908V107.954V108.516H269.885V107.954Z" fill="#A0A0A0" fill-opacity="0.23" mask="url(#path-51-inside-25_743_15513)"/>
<mask id="path-54-inside-26_743_15513" fill="white">
<path d="M269.885 53.9771H323.862V107.954H269.885V53.9771Z"/>
</mask>
<path d="M269.885 53.9771H323.862V107.954H269.885V53.9771Z" fill="#B9B1A7" fill-opacity="0.06"/>
<path d="M323.862 107.954V108.516H324.424V107.954H323.862ZM323.862 53.9771H323.3V107.954H323.862H324.424V53.9771H323.862ZM323.862 107.954V107.392H269.885V107.954V108.516H323.862V107.954Z" fill="#A0A0A0" fill-opacity="0.23" mask="url(#path-54-inside-26_743_15513)"/>
<mask id="path-56-inside-27_743_15513" fill="white">
<path d="M323.863 53.9771H377.84V107.954H323.863V53.9771Z"/>
</mask>
<path d="M377.84 107.954V108.516H378.403V107.954H377.84ZM377.84 53.9771H377.278V107.954H377.84H378.403V53.9771H377.84ZM377.84 107.954V107.392H323.863V107.954V108.516H377.84V107.954Z" fill="#A0A0A0" fill-opacity="0.23" mask="url(#path-56-inside-27_743_15513)"/>
<mask id="path-58-inside-28_743_15513" fill="white">
<path d="M377.84 53.9771H431.817V107.954H377.84V53.9771Z"/>
</mask>
<path d="M431.817 107.954V108.516H432.379V107.954H431.817ZM431.817 53.9771H431.255V107.954H431.817H432.379V53.9771H431.817ZM431.817 107.954V107.392H377.84V107.954V108.516H431.817V107.954Z" fill="#A0A0A0" fill-opacity="0.23" mask="url(#path-58-inside-28_743_15513)"/>
<mask id="path-60-inside-29_743_15513" fill="white">
<path d="M431.816 53.9771H485.794V107.954H431.816V53.9771Z"/>
</mask>
<path d="M485.794 107.954V108.516H486.356V107.954H485.794ZM485.794 53.9771H485.231V107.954H485.794H486.356V53.9771H485.794ZM485.794 107.954V107.392H431.816V107.954V108.516H485.794V107.954Z" fill="#A0A0A0" fill-opacity="0.23" mask="url(#path-60-inside-29_743_15513)"/>
<mask id="path-62-inside-30_743_15513" fill="white">
<path d="M485.795 53.9771H539.772V107.954H485.795V53.9771Z"/>
</mask>
<path d="M539.772 107.954V108.516H540.334V107.954H539.772ZM539.772 53.9771H539.21V107.954H539.772H540.334V53.9771H539.772ZM539.772 107.954V107.392H485.795V107.954V108.516H539.772V107.954Z" fill="#A0A0A0" fill-opacity="0.23" mask="url(#path-62-inside-30_743_15513)"/>
<mask id="path-64-inside-31_743_15513" fill="white">
<path d="M539.771 53.9771H593.749V107.954H539.771V53.9771Z"/>
</mask>
<path d="M593.749 107.954V108.516H594.311V107.954H593.749ZM593.749 53.9771H593.186V107.954H593.749H594.311V53.9771H593.749ZM593.749 107.954V107.392H539.771V107.954V108.516H593.749V107.954Z" fill="#A0A0A0" fill-opacity="0.23" mask="url(#path-64-inside-31_743_15513)"/>
<mask id="path-66-inside-32_743_15513" fill="white">
<path d="M593.748 53.9771H647.725V107.954H593.748V53.9771Z"/>
</mask>
<path d="M647.725 107.954V108.516H648.287V107.954H647.725ZM647.725 53.9771H647.163V107.954H647.725H648.287V53.9771H647.725ZM647.725 107.954V107.392H593.748V107.954V108.516H647.725V107.954Z" fill="#A0A0A0" fill-opacity="0.23" mask="url(#path-66-inside-32_743_15513)"/>
<mask id="path-68-inside-33_743_15513" fill="white">
<path d="M647.725 53.9771H701.702V107.954H647.725V53.9771Z"/>
</mask>
<path d="M701.702 107.954V108.516H702.264V107.954H701.702ZM701.702 53.9771H701.139V107.954H701.702H702.264V53.9771H701.702ZM701.702 107.954V107.392H647.725V107.954V108.516H701.702V107.954Z" fill="#A0A0A0" fill-opacity="0.23" mask="url(#path-68-inside-33_743_15513)"/>
<mask id="path-70-inside-34_743_15513" fill="white">
<path d="M701.703 53.9771H755.68V107.954H701.703V53.9771Z"/>
</mask>
<path d="M755.68 107.954V108.516H756.243V107.954H755.68ZM755.68 53.9771H755.118V107.954H755.68H756.243V53.9771H755.68ZM755.68 107.954V107.392H701.703V107.954V108.516H755.68V107.954Z" fill="#A0A0A0" fill-opacity="0.23" mask="url(#path-70-inside-34_743_15513)"/>
<mask id="path-72-inside-35_743_15513" fill="white">
<path d="M755.68 53.9771H809.657V107.954H755.68V53.9771Z"/>
</mask>
<path d="M755.68 53.9771H809.657V107.954H755.68V53.9771Z" fill="#B9B1A7" fill-opacity="0.06"/>
<path d="M809.657 107.954V108.516H810.219V107.954H809.657ZM809.657 53.9771H809.095V107.954H809.657H810.219V53.9771H809.657ZM809.657 107.954V107.392H755.68V107.954V108.516H809.657V107.954Z" fill="#A0A0A0" fill-opacity="0.23" mask="url(#path-72-inside-35_743_15513)"/>
<mask id="path-74-inside-36_743_15513" fill="white">
<path d="M809.656 53.9771H863.633V107.954H809.656V53.9771Z"/>
</mask>
<path d="M863.633 107.954V108.516H864.196V107.954H863.633ZM863.633 53.9771H863.071V107.954H863.633H864.196V53.9771H863.633ZM863.633 107.954V107.392H809.656V107.954V108.516H863.633V107.954Z" fill="#A0A0A0" fill-opacity="0.23" mask="url(#path-74-inside-36_743_15513)"/>
<mask id="path-76-inside-37_743_15513" fill="white">
<path d="M863.633 53.9771H917.61V107.954H863.633V53.9771Z"/>
</mask>
<path d="M917.61 107.954V108.516H918.172V107.954H917.61ZM917.61 53.9771H917.048V107.954H917.61H918.172V53.9771H917.61ZM917.61 107.954V107.392H863.633V107.954V108.516H917.61V107.954Z" fill="#A0A0A0" fill-opacity="0.23" mask="url(#path-76-inside-37_743_15513)"/>
<mask id="path-78-inside-38_743_15513" fill="white">
<path d="M917.611 53.9771H971.588V107.954H917.611V53.9771Z"/>
</mask>
<path d="M971.588 107.954V108.516H972.151V107.954H971.588ZM971.588 53.9771H971.026V107.954H971.588H972.151V53.9771H971.588ZM971.588 107.954V107.392H917.611V107.954V108.516H971.588V107.954Z" fill="#A0A0A0" fill-opacity="0.23" mask="url(#path-78-inside-38_743_15513)"/>
<mask id="path-80-inside-39_743_15513" fill="white">
<path d="M971.588 53.9771H1025.57V107.954H971.588V53.9771Z"/>
</mask>
<path d="M1025.57 107.954V108.516H1026.13V107.954H1025.57ZM1025.57 53.9771H1025V107.954H1025.57H1026.13V53.9771H1025.57ZM1025.57 107.954V107.392H971.588V107.954V108.516H1025.57V107.954Z" fill="#A0A0A0" fill-opacity="0.23" mask="url(#path-80-inside-39_743_15513)"/>
<mask id="path-82-inside-40_743_15513" fill="white">
<path d="M1025.56 53.9771H1079.54V107.954H1025.56V53.9771Z"/>
</mask>
<path d="M1079.54 107.954V108.516H1080.1V107.954H1079.54ZM1079.54 53.9771H1078.98V107.954H1079.54H1080.1V53.9771H1079.54ZM1079.54 107.954V107.392H1025.56V107.954V108.516H1079.54V107.954Z" fill="#A0A0A0" fill-opacity="0.23" mask="url(#path-82-inside-40_743_15513)"/>
<mask id="path-84-inside-41_743_15513" fill="white">
<path d="M0 107.954H53.9771V161.931H0V107.954Z"/>
</mask>
<path d="M53.9771 161.931V162.493H54.5394V161.931H53.9771ZM53.9771 107.954H53.4148V161.931H53.9771H54.5394V107.954H53.9771ZM53.9771 161.931V161.369H0V161.931V162.493H53.9771V161.931Z" fill="#A0A0A0" fill-opacity="0.23" mask="url(#path-84-inside-41_743_15513)"/>
<mask id="path-86-inside-42_743_15513" fill="white">
<path d="M53.9766 107.954H107.954V161.931H53.9766V107.954Z"/>
</mask>
<path d="M107.954 161.931V162.493H108.516V161.931H107.954ZM107.954 107.954H107.391V161.931H107.954H108.516V107.954H107.954ZM107.954 161.931V161.369H53.9766V161.931V162.493H107.954V161.931Z" fill="#A0A0A0" fill-opacity="0.23" mask="url(#path-86-inside-42_743_15513)"/>
<mask id="path-88-inside-43_743_15513" fill="white">
<path d="M107.955 107.954H161.932V161.931H107.955V107.954Z"/>
</mask>
<path d="M161.932 161.931V162.493H162.494V161.931H161.932ZM161.932 107.954H161.37V161.931H161.932H162.494V107.954H161.932ZM161.932 161.931V161.369H107.955V161.931V162.493H161.932V161.931Z" fill="#A0A0A0" fill-opacity="0.23" mask="url(#path-88-inside-43_743_15513)"/>
<g clip-path="url(#clip2_743_15513)">
<mask id="path-90-inside-44_743_15513" fill="white">
<path d="M161.932 107.954H215.909V161.931H161.932V107.954Z"/>
</mask>
<circle cx="267.075" cy="223.78" r="71.9695" fill="#A0A0A0" fill-opacity="0.05"/>
</g>
<path d="M215.909 161.931V162.493H216.471V161.931H215.909ZM215.909 107.954H215.346V161.931H215.909H216.471V107.954H215.909ZM215.909 161.931V161.369H161.932V161.931V162.493H215.909V161.931Z" fill="#A0A0A0" fill-opacity="0.23" mask="url(#path-90-inside-44_743_15513)"/>
<mask id="path-93-inside-45_743_15513" fill="white">
<path d="M215.908 107.954H269.885V161.931H215.908V107.954Z"/>
</mask>
<path d="M269.885 161.931V162.493H270.448V161.931H269.885ZM269.885 107.954H269.323V161.931H269.885H270.448V107.954H269.885ZM269.885 161.931V161.369H215.908V161.931V162.493H269.885V161.931Z" fill="#A0A0A0" fill-opacity="0.23" mask="url(#path-93-inside-45_743_15513)"/>
<mask id="path-95-inside-46_743_15513" fill="white">
<path d="M269.885 107.954H323.862V161.931H269.885V107.954Z"/>
</mask>
<path d="M323.862 161.931V162.493H324.424V161.931H323.862ZM323.862 107.954H323.3V161.931H323.862H324.424V107.954H323.862ZM323.862 161.931V161.369H269.885V161.931V162.493H323.862V161.931Z" fill="#A0A0A0" fill-opacity="0.23" mask="url(#path-95-inside-46_743_15513)"/>
<mask id="path-97-inside-47_743_15513" fill="white">
<path d="M323.863 107.954H377.84V161.931H323.863V107.954Z"/>
</mask>
<path d="M377.84 161.931V162.493H378.403V161.931H377.84ZM377.84 107.954H377.278V161.931H377.84H378.403V107.954H377.84ZM377.84 161.931V161.369H323.863V161.931V162.493H377.84V161.931Z" fill="#A0A0A0" fill-opacity="0.23" mask="url(#path-97-inside-47_743_15513)"/>
<mask id="path-99-inside-48_743_15513" fill="white">
<path d="M377.84 107.954H431.817V161.931H377.84V107.954Z"/>
</mask>
<path d="M377.84 107.954H431.817V161.931H377.84V107.954Z" fill="#B9B1A7" fill-opacity="0.06"/>
<path d="M431.817 161.931V162.493H432.379V161.931H431.817ZM431.817 107.954H431.255V161.931H431.817H432.379V107.954H431.817ZM431.817 161.931V161.369H377.84V161.931V162.493H431.817V161.931Z" fill="#A0A0A0" fill-opacity="0.23" mask="url(#path-99-inside-48_743_15513)"/>
<mask id="path-101-inside-49_743_15513" fill="white">
<path d="M431.816 107.954H485.794V161.931H431.816V107.954Z"/>
</mask>
<path d="M485.794 161.931V162.493H486.356V161.931H485.794ZM485.794 107.954H485.231V161.931H485.794H486.356V107.954H485.794ZM485.794 161.931V161.369H431.816V161.931V162.493H485.794V161.931Z" fill="#A0A0A0" fill-opacity="0.23" mask="url(#path-101-inside-49_743_15513)"/>
<mask id="path-103-inside-50_743_15513" fill="white">
<path d="M485.795 107.954H539.772V161.931H485.795V107.954Z"/>
</mask>
<path d="M539.772 161.931V162.493H540.334V161.931H539.772ZM539.772 107.954H539.21V161.931H539.772H540.334V107.954H539.772ZM539.772 161.931V161.369H485.795V161.931V162.493H539.772V161.931Z" fill="#A0A0A0" fill-opacity="0.23" mask="url(#path-103-inside-50_743_15513)"/>
<mask id="path-105-inside-51_743_15513" fill="white">
<path d="M539.771 107.954H593.749V161.931H539.771V107.954Z"/>
</mask>
<path d="M593.749 161.931V162.493H594.311V161.931H593.749ZM593.749 107.954H593.186V161.931H593.749H594.311V107.954H593.749ZM593.749 161.931V161.369H539.771V161.931V162.493H593.749V161.931Z" fill="#A0A0A0" fill-opacity="0.23" mask="url(#path-105-inside-51_743_15513)"/>
<mask id="path-107-inside-52_743_15513" fill="white">
<path d="M593.748 107.954H647.725V161.931H593.748V107.954Z"/>
</mask>
<path d="M593.748 107.954H647.725V161.931H593.748V107.954Z" fill="#B9B1A7" fill-opacity="0.06"/>
<path d="M647.725 161.931V162.493H648.287V161.931H647.725ZM647.725 107.954H647.163V161.931H647.725H648.287V107.954H647.725ZM647.725 161.931V161.369H593.748V161.931V162.493H647.725V161.931Z" fill="#A0A0A0" fill-opacity="0.23" mask="url(#path-107-inside-52_743_15513)"/>
<mask id="path-109-inside-53_743_15513" fill="white">
<path d="M647.725 107.954H701.702V161.931H647.725V107.954Z"/>
</mask>
<path d="M701.702 161.931V162.493H702.264V161.931H701.702ZM701.702 107.954H701.139V161.931H701.702H702.264V107.954H701.702ZM701.702 161.931V161.369H647.725V161.931V162.493H701.702V161.931Z" fill="#A0A0A0" fill-opacity="0.23" mask="url(#path-109-inside-53_743_15513)"/>
<mask id="path-111-inside-54_743_15513" fill="white">
<path d="M701.703 107.954H755.68V161.931H701.703V107.954Z"/>
</mask>
<path d="M755.68 161.931V162.493H756.243V161.931H755.68ZM755.68 107.954H755.118V161.931H755.68H756.243V107.954H755.68ZM755.68 161.931V161.369H701.703V161.931V162.493H755.68V161.931Z" fill="#A0A0A0" fill-opacity="0.23" mask="url(#path-111-inside-54_743_15513)"/>
<mask id="path-113-inside-55_743_15513" fill="white">
<path d="M755.68 107.954H809.657V161.931H755.68V107.954Z"/>
</mask>
<path d="M809.657 161.931V162.493H810.219V161.931H809.657ZM809.657 107.954H809.095V161.931H809.657H810.219V107.954H809.657ZM809.657 161.931V161.369H755.68V161.931V162.493H809.657V161.931Z" fill="#A0A0A0" fill-opacity="0.23" mask="url(#path-113-inside-55_743_15513)"/>
<mask id="path-115-inside-56_743_15513" fill="white">
<path d="M809.656 107.954H863.633V161.931H809.656V107.954Z"/>
</mask>
<path d="M863.633 161.931V162.493H864.196V161.931H863.633ZM863.633 107.954H863.071V161.931H863.633H864.196V107.954H863.633ZM863.633 161.931V161.369H809.656V161.931V162.493H863.633V161.931Z" fill="#A0A0A0" fill-opacity="0.23" mask="url(#path-115-inside-56_743_15513)"/>
<mask id="path-117-inside-57_743_15513" fill="white">
<path d="M863.633 107.954H917.61V161.931H863.633V107.954Z"/>
</mask>
<path d="M917.61 161.931V162.493H918.172V161.931H917.61ZM917.61 107.954H917.048V161.931H917.61H918.172V107.954H917.61ZM917.61 161.931V161.369H863.633V161.931V162.493H917.61V161.931Z" fill="#A0A0A0" fill-opacity="0.23" mask="url(#path-117-inside-57_743_15513)"/>
<mask id="path-119-inside-58_743_15513" fill="white">
<path d="M917.611 107.954H971.588V161.931H917.611V107.954Z"/>
</mask>
<path d="M971.588 161.931V162.493H972.151V161.931H971.588ZM971.588 107.954H971.026V161.931H971.588H972.151V107.954H971.588ZM971.588 161.931V161.369H917.611V161.931V162.493H971.588V161.931Z" fill="#A0A0A0" fill-opacity="0.23" mask="url(#path-119-inside-58_743_15513)"/>
<mask id="path-121-inside-59_743_15513" fill="white">
<path d="M971.588 107.954H1025.57V161.931H971.588V107.954Z"/>
</mask>
<path d="M1025.57 161.931V162.493H1026.13V161.931H1025.57ZM1025.57 107.954H1025V161.931H1025.57H1026.13V107.954H1025.57ZM1025.57 161.931V161.369H971.588V161.931V162.493H1025.57V161.931Z" fill="#A0A0A0" fill-opacity="0.23" mask="url(#path-121-inside-59_743_15513)"/>
<mask id="path-123-inside-60_743_15513" fill="white">
<path d="M1025.56 107.954H1079.54V161.931H1025.56V107.954Z"/>
</mask>
<path d="M1079.54 161.931V162.493H1080.1V161.931H1079.54ZM1079.54 107.954H1078.98V161.931H1079.54H1080.1V107.954H1079.54ZM1079.54 161.931V161.369H1025.56V161.931V162.493H1079.54V161.931Z" fill="#A0A0A0" fill-opacity="0.23" mask="url(#path-123-inside-60_743_15513)"/>
<mask id="path-125-inside-61_743_15513" fill="white">
<path d="M0 161.931H53.9771V215.909H0V161.931Z"/>
</mask>
<path d="M53.9771 215.909V216.471H54.5394V215.909H53.9771ZM53.9771 161.931H53.4148V215.909H53.9771H54.5394V161.931H53.9771ZM53.9771 215.909V215.346H0V215.909V216.471H53.9771V215.909Z" fill="#A0A0A0" fill-opacity="0.23" mask="url(#path-125-inside-61_743_15513)"/>
<mask id="path-127-inside-62_743_15513" fill="white">
<path d="M53.9766 161.931H107.954V215.909H53.9766V161.931Z"/>
</mask>
<path d="M107.954 215.909V216.471H108.516V215.909H107.954ZM107.954 161.931H107.391V215.909H107.954H108.516V161.931H107.954ZM107.954 215.909V215.346H53.9766V215.909V216.471H107.954V215.909Z" fill="#A0A0A0" fill-opacity="0.23" mask="url(#path-127-inside-62_743_15513)"/>
<mask id="path-129-inside-63_743_15513" fill="white">
<path d="M107.955 161.931H161.932V215.909H107.955V161.931Z"/>
</mask>
<path d="M107.955 161.931H161.932V215.909H107.955V161.931Z" fill="#B9B1A7" fill-opacity="0.06"/>
<path d="M161.932 215.909V216.471H162.494V215.909H161.932ZM161.932 161.931H161.37V215.909H161.932H162.494V161.931H161.932ZM161.932 215.909V215.346H107.955V215.909V216.471H161.932V215.909Z" fill="#A0A0A0" fill-opacity="0.23" mask="url(#path-129-inside-63_743_15513)"/>
<mask id="path-131-inside-64_743_15513" fill="white">
<path d="M161.932 161.931H215.909V215.909H161.932V161.931Z"/>
</mask>
<path d="M215.909 215.909V216.471H216.471V215.909H215.909ZM215.909 161.931H215.346V215.909H215.909H216.471V161.931H215.909ZM215.909 215.909V215.346H161.932V215.909V216.471H215.909V215.909Z" fill="#A0A0A0" fill-opacity="0.23" mask="url(#path-131-inside-64_743_15513)"/>
<mask id="path-133-inside-65_743_15513" fill="white">
<path d="M215.908 161.931H269.885V215.909H215.908V161.931Z"/>
</mask>
<path d="M269.885 215.909V216.471H270.448V215.909H269.885ZM269.885 161.931H269.323V215.909H269.885H270.448V161.931H269.885ZM269.885 215.909V215.346H215.908V215.909V216.471H269.885V215.909Z" fill="#A0A0A0" fill-opacity="0.23" mask="url(#path-133-inside-65_743_15513)"/>
<mask id="path-135-inside-66_743_15513" fill="white">
<path d="M269.885 161.931H323.862V215.909H269.885V161.931Z"/>
</mask>
<path d="M323.862 215.909V216.471H324.424V215.909H323.862ZM323.862 161.931H323.3V215.909H323.862H324.424V161.931H323.862ZM323.862 215.909V215.346H269.885V215.909V216.471H323.862V215.909Z" fill="#A0A0A0" fill-opacity="0.23" mask="url(#path-135-inside-66_743_15513)"/>
<mask id="path-137-inside-67_743_15513" fill="white">
<path d="M323.863 161.931H377.84V215.909H323.863V161.931Z"/>
</mask>
<path d="M377.84 215.909V216.471H378.403V215.909H377.84ZM377.84 161.931H377.278V215.909H377.84H378.403V161.931H377.84ZM377.84 215.909V215.346H323.863V215.909V216.471H377.84V215.909Z" fill="#A0A0A0" fill-opacity="0.23" mask="url(#path-137-inside-67_743_15513)"/>
<mask id="path-139-inside-68_743_15513" fill="white">
<path d="M377.84 161.931H431.817V215.909H377.84V161.931Z"/>
</mask>
<path d="M431.817 215.909V216.471H432.379V215.909H431.817ZM431.817 161.931H431.255V215.909H431.817H432.379V161.931H431.817ZM431.817 215.909V215.346H377.84V215.909V216.471H431.817V215.909Z" fill="#A0A0A0" fill-opacity="0.23" mask="url(#path-139-inside-68_743_15513)"/>
<mask id="path-141-inside-69_743_15513" fill="white">
<path d="M431.816 161.931H485.794V215.909H431.816V161.931Z"/>
</mask>
<path d="M485.794 215.909V216.471H486.356V215.909H485.794ZM485.794 161.931H485.231V215.909H485.794H486.356V161.931H485.794ZM485.794 215.909V215.346H431.816V215.909V216.471H485.794V215.909Z" fill="#A0A0A0" fill-opacity="0.23" mask="url(#path-141-inside-69_743_15513)"/>
<mask id="path-143-inside-70_743_15513" fill="white">
<path d="M485.795 161.931H539.772V215.909H485.795V161.931Z"/>
</mask>
<path d="M539.772 215.909V216.471H540.334V215.909H539.772ZM539.772 161.931H539.21V215.909H539.772H540.334V161.931H539.772ZM539.772 215.909V215.346H485.795V215.909V216.471H539.772V215.909Z" fill="#A0A0A0" fill-opacity="0.23" mask="url(#path-143-inside-70_743_15513)"/>
<mask id="path-145-inside-71_743_15513" fill="white">
<path d="M539.771 161.931H593.749V215.909H539.771V161.931Z"/>
</mask>
<path d="M593.749 215.909V216.471H594.311V215.909H593.749ZM593.749 161.931H593.186V215.909H593.749H594.311V161.931H593.749ZM593.749 215.909V215.346H539.771V215.909V216.471H593.749V215.909Z" fill="#A0A0A0" fill-opacity="0.23" mask="url(#path-145-inside-71_743_15513)"/>
<mask id="path-147-inside-72_743_15513" fill="white">
<path d="M593.748 161.931H647.725V215.909H593.748V161.931Z"/>
</mask>
<path d="M647.725 215.909V216.471H648.287V215.909H647.725ZM647.725 161.931H647.163V215.909H647.725H648.287V161.931H647.725ZM647.725 215.909V215.346H593.748V215.909V216.471H647.725V215.909Z" fill="#A0A0A0" fill-opacity="0.23" mask="url(#path-147-inside-72_743_15513)"/>
<mask id="path-149-inside-73_743_15513" fill="white">
<path d="M647.725 161.931H701.702V215.909H647.725V161.931Z"/>
</mask>
<path d="M701.702 215.909V216.471H702.264V215.909H701.702ZM701.702 161.931H701.139V215.909H701.702H702.264V161.931H701.702ZM701.702 215.909V215.346H647.725V215.909V216.471H701.702V215.909Z" fill="#A0A0A0" fill-opacity="0.23" mask="url(#path-149-inside-73_743_15513)"/>
<mask id="path-151-inside-74_743_15513" fill="white">
<path d="M701.703 161.931H755.68V215.909H701.703V161.931Z"/>
</mask>
<path d="M755.68 215.909V216.471H756.243V215.909H755.68ZM755.68 161.931H755.118V215.909H755.68H756.243V161.931H755.68ZM755.68 215.909V215.346H701.703V215.909V216.471H755.68V215.909Z" fill="#A0A0A0" fill-opacity="0.23" mask="url(#path-151-inside-74_743_15513)"/>
<mask id="path-153-inside-75_743_15513" fill="white">
<path d="M755.68 161.931H809.657V215.909H755.68V161.931Z"/>
</mask>
<path d="M755.68 161.931H809.657V215.909H755.68V161.931Z" fill="#B9B1A7" fill-opacity="0.06"/>
<path d="M809.657 215.909V216.471H810.219V215.909H809.657ZM809.657 161.931H809.095V215.909H809.657H810.219V161.931H809.657ZM809.657 215.909V215.346H755.68V215.909V216.471H809.657V215.909Z" fill="#A0A0A0" fill-opacity="0.23" mask="url(#path-153-inside-75_743_15513)"/>
<mask id="path-155-inside-76_743_15513" fill="white">
<path d="M809.656 161.931H863.633V215.909H809.656V161.931Z"/>
</mask>
<path d="M863.633 215.909V216.471H864.196V215.909H863.633ZM863.633 161.931H863.071V215.909H863.633H864.196V161.931H863.633ZM863.633 215.909V215.346H809.656V215.909V216.471H863.633V215.909Z" fill="#A0A0A0" fill-opacity="0.23" mask="url(#path-155-inside-76_743_15513)"/>
<mask id="path-157-inside-77_743_15513" fill="white">
<path d="M863.633 161.931H917.61V215.909H863.633V161.931Z"/>
</mask>
<path d="M917.61 215.909V216.471H918.172V215.909H917.61ZM917.61 161.931H917.048V215.909H917.61H918.172V161.931H917.61ZM917.61 215.909V215.346H863.633V215.909V216.471H917.61V215.909Z" fill="#A0A0A0" fill-opacity="0.23" mask="url(#path-157-inside-77_743_15513)"/>
<mask id="path-159-inside-78_743_15513" fill="white">
<path d="M917.611 161.931H971.588V215.909H917.611V161.931Z"/>
</mask>
<path d="M971.588 215.909V216.471H972.151V215.909H971.588ZM971.588 161.931H971.026V215.909H971.588H972.151V161.931H971.588ZM971.588 215.909V215.346H917.611V215.909V216.471H971.588V215.909Z" fill="#A0A0A0" fill-opacity="0.23" mask="url(#path-159-inside-78_743_15513)"/>
<mask id="path-161-inside-79_743_15513" fill="white">
<path d="M971.588 161.931H1025.57V215.909H971.588V161.931Z"/>
</mask>
<path d="M1025.57 215.909V216.471H1026.13V215.909H1025.57ZM1025.57 161.931H1025V215.909H1025.57H1026.13V161.931H1025.57ZM1025.57 215.909V215.346H971.588V215.909V216.471H1025.57V215.909Z" fill="#A0A0A0" fill-opacity="0.23" mask="url(#path-161-inside-79_743_15513)"/>
<mask id="path-163-inside-80_743_15513" fill="white">
<path d="M1025.56 161.931H1079.54V215.909H1025.56V161.931Z"/>
</mask>
<path d="M1079.54 215.909V216.471H1080.1V215.909H1079.54ZM1079.54 161.931H1078.98V215.909H1079.54H1080.1V161.931H1079.54ZM1079.54 215.909V215.346H1025.56V215.909V216.471H1079.54V215.909Z" fill="#A0A0A0" fill-opacity="0.23" mask="url(#path-163-inside-80_743_15513)"/>
<mask id="path-165-inside-81_743_15513" fill="white">
<path d="M0 215.908H53.9771V269.886H0V215.908Z"/>
</mask>
<path d="M53.9771 269.886V270.448H54.5394V269.886H53.9771ZM53.9771 215.908H53.4148V269.886H53.9771H54.5394V215.908H53.9771ZM53.9771 269.886V269.323H0V269.886V270.448H53.9771V269.886Z" fill="#A0A0A0" fill-opacity="0.23" mask="url(#path-165-inside-81_743_15513)"/>
<mask id="path-167-inside-82_743_15513" fill="white">
<path d="M53.9766 215.908H107.954V269.886H53.9766V215.908Z"/>
</mask>
<path d="M107.954 269.886V270.448H108.516V269.886H107.954ZM107.954 215.908H107.391V269.886H107.954H108.516V215.908H107.954ZM107.954 269.886V269.323H53.9766V269.886V270.448H107.954V269.886Z" fill="#A0A0A0" fill-opacity="0.23" mask="url(#path-167-inside-82_743_15513)"/>
<mask id="path-169-inside-83_743_15513" fill="white">
<path d="M107.955 215.908H161.932V269.886H107.955V215.908Z"/>
</mask>
<path d="M161.932 269.886V270.448H162.494V269.886H161.932ZM161.932 215.908H161.37V269.886H161.932H162.494V215.908H161.932ZM161.932 269.886V269.323H107.955V269.886V270.448H161.932V269.886Z" fill="#A0A0A0" fill-opacity="0.23" mask="url(#path-169-inside-83_743_15513)"/>
<mask id="path-171-inside-84_743_15513" fill="white">
<path d="M161.932 215.908H215.909V269.886H161.932V215.908Z"/>
</mask>
<path d="M215.909 269.886V270.448H216.471V269.886H215.909ZM215.909 215.908H215.346V269.886H215.909H216.471V215.908H215.909ZM215.909 269.886V269.323H161.932V269.886V270.448H215.909V269.886Z" fill="#A0A0A0" fill-opacity="0.23" mask="url(#path-171-inside-84_743_15513)"/>
<mask id="path-173-inside-85_743_15513" fill="white">
<path d="M215.908 215.908H269.885V269.886H215.908V215.908Z"/>
</mask>
<path d="M269.885 269.886V270.448H270.448V269.886H269.885ZM269.885 215.908H269.323V269.886H269.885H270.448V215.908H269.885ZM269.885 269.886V269.323H215.908V269.886V270.448H269.885V269.886Z" fill="#A0A0A0" fill-opacity="0.23" mask="url(#path-173-inside-85_743_15513)"/>
<mask id="path-175-inside-86_743_15513" fill="white">
<path d="M269.885 215.908H323.862V269.886H269.885V215.908Z"/>
</mask>
<path d="M323.862 269.886V270.448H324.424V269.886H323.862ZM323.862 215.908H323.3V269.886H323.862H324.424V215.908H323.862ZM323.862 269.886V269.323H269.885V269.886V270.448H323.862V269.886Z" fill="#A0A0A0" fill-opacity="0.23" mask="url(#path-175-inside-86_743_15513)"/>
<mask id="path-177-inside-87_743_15513" fill="white">
<path d="M323.863 215.908H377.84V269.886H323.863V215.908Z"/>
</mask>
<path d="M377.84 269.886V270.448H378.403V269.886H377.84ZM377.84 215.908H377.278V269.886H377.84H378.403V215.908H377.84ZM377.84 269.886V269.323H323.863V269.886V270.448H377.84V269.886Z" fill="#A0A0A0" fill-opacity="0.23" mask="url(#path-177-inside-87_743_15513)"/>
<mask id="path-179-inside-88_743_15513" fill="white">
<path d="M377.84 215.908H431.817V269.886H377.84V215.908Z"/>
</mask>
<path d="M431.817 269.886V270.448H432.379V269.886H431.817ZM431.817 215.908H431.255V269.886H431.817H432.379V215.908H431.817ZM431.817 269.886V269.323H377.84V269.886V270.448H431.817V269.886Z" fill="#A0A0A0" fill-opacity="0.23" mask="url(#path-179-inside-88_743_15513)"/>
<mask id="path-181-inside-89_743_15513" fill="white">
<path d="M431.816 215.908H485.794V269.886H431.816V215.908Z"/>
</mask>
<path d="M431.816 215.908H485.794V269.886H431.816V215.908Z" fill="#B9B1A7" fill-opacity="0.06"/>
<path d="M485.794 269.886V270.448H486.356V269.886H485.794ZM485.794 215.908H485.231V269.886H485.794H486.356V215.908H485.794ZM485.794 269.886V269.323H431.816V269.886V270.448H485.794V269.886Z" fill="#A0A0A0" fill-opacity="0.23" mask="url(#path-181-inside-89_743_15513)"/>
<mask id="path-183-inside-90_743_15513" fill="white">
<path d="M485.795 215.908H539.772V269.886H485.795V215.908Z"/>
</mask>
<path d="M539.772 269.886V270.448H540.334V269.886H539.772ZM539.772 215.908H539.21V269.886H539.772H540.334V215.908H539.772ZM539.772 269.886V269.323H485.795V269.886V270.448H539.772V269.886Z" fill="#A0A0A0" fill-opacity="0.23" mask="url(#path-183-inside-90_743_15513)"/>
<mask id="path-185-inside-91_743_15513" fill="white">
<path d="M539.771 215.908H593.749V269.886H539.771V215.908Z"/>
</mask>
<path d="M593.749 269.886V270.448H594.311V269.886H593.749ZM593.749 215.908H593.186V269.886H593.749H594.311V215.908H593.749ZM593.749 269.886V269.323H539.771V269.886V270.448H593.749V269.886Z" fill="#A0A0A0" fill-opacity="0.23" mask="url(#path-185-inside-91_743_15513)"/>
<mask id="path-187-inside-92_743_15513" fill="white">
<path d="M593.748 215.908H647.725V269.886H593.748V215.908Z"/>
</mask>
<path d="M647.725 269.886V270.448H648.287V269.886H647.725ZM647.725 215.908H647.163V269.886H647.725H648.287V215.908H647.725ZM647.725 269.886V269.323H593.748V269.886V270.448H647.725V269.886Z" fill="#A0A0A0" fill-opacity="0.23" mask="url(#path-187-inside-92_743_15513)"/>
<mask id="path-189-inside-93_743_15513" fill="white">
<path d="M647.725 215.908H701.702V269.886H647.725V215.908Z"/>
</mask>
<path d="M701.702 269.886V270.448H702.264V269.886H701.702ZM701.702 215.908H701.139V269.886H701.702H702.264V215.908H701.702ZM701.702 269.886V269.323H647.725V269.886V270.448H701.702V269.886Z" fill="#A0A0A0" fill-opacity="0.23" mask="url(#path-189-inside-93_743_15513)"/>
<mask id="path-191-inside-94_743_15513" fill="white">
<path d="M701.703 215.908H755.68V269.886H701.703V215.908Z"/>
</mask>
<path d="M755.68 269.886V270.448H756.243V269.886H755.68ZM755.68 215.908H755.118V269.886H755.68H756.243V215.908H755.68ZM755.68 269.886V269.323H701.703V269.886V270.448H755.68V269.886Z" fill="#A0A0A0" fill-opacity="0.23" mask="url(#path-191-inside-94_743_15513)"/>
<mask id="path-193-inside-95_743_15513" fill="white">
<path d="M755.68 215.908H809.657V269.886H755.68V215.908Z"/>
</mask>
<path d="M809.657 269.886V270.448H810.219V269.886H809.657ZM809.657 215.908H809.095V269.886H809.657H810.219V215.908H809.657ZM809.657 269.886V269.323H755.68V269.886V270.448H809.657V269.886Z" fill="#A0A0A0" fill-opacity="0.23" mask="url(#path-193-inside-95_743_15513)"/>
<mask id="path-195-inside-96_743_15513" fill="white">
<path d="M809.656 215.908H863.633V269.886H809.656V215.908Z"/>
</mask>
<path d="M863.633 269.886V270.448H864.196V269.886H863.633ZM863.633 215.908H863.071V269.886H863.633H864.196V215.908H863.633ZM863.633 269.886V269.323H809.656V269.886V270.448H863.633V269.886Z" fill="#A0A0A0" fill-opacity="0.23" mask="url(#path-195-inside-96_743_15513)"/>
<mask id="path-197-inside-97_743_15513" fill="white">
<path d="M863.633 215.908H917.61V269.886H863.633V215.908Z"/>
</mask>
<path d="M917.61 269.886V270.448H918.172V269.886H917.61ZM917.61 215.908H917.048V269.886H917.61H918.172V215.908H917.61ZM917.61 269.886V269.323H863.633V269.886V270.448H917.61V269.886Z" fill="#A0A0A0" fill-opacity="0.23" mask="url(#path-197-inside-97_743_15513)"/>
<mask id="path-199-inside-98_743_15513" fill="white">
<path d="M917.611 215.908H971.588V269.886H917.611V215.908Z"/>
</mask>
<path d="M971.588 269.886V270.448H972.151V269.886H971.588ZM971.588 215.908H971.026V269.886H971.588H972.151V215.908H971.588ZM971.588 269.886V269.323H917.611V269.886V270.448H971.588V269.886Z" fill="#A0A0A0" fill-opacity="0.23" mask="url(#path-199-inside-98_743_15513)"/>
<mask id="path-201-inside-99_743_15513" fill="white">
<path d="M971.588 215.908H1025.57V269.886H971.588V215.908Z"/>
</mask>
<path d="M971.588 215.908H1025.57V269.886H971.588V215.908Z" fill="#B9B1A7" fill-opacity="0.06"/>
<path d="M1025.57 269.886V270.448H1026.13V269.886H1025.57ZM1025.57 215.908H1025V269.886H1025.57H1026.13V215.908H1025.57ZM1025.57 269.886V269.323H971.588V269.886V270.448H1025.57V269.886Z" fill="#A0A0A0" fill-opacity="0.23" mask="url(#path-201-inside-99_743_15513)"/>
<mask id="path-203-inside-100_743_15513" fill="white">
<path d="M1025.56 215.908H1079.54V269.886H1025.56V215.908Z"/>
</mask>
<path d="M1079.54 269.886V270.448H1080.1V269.886H1079.54ZM1079.54 215.908H1078.98V269.886H1079.54H1080.1V215.908H1079.54ZM1079.54 269.886V269.323H1025.56V269.886V270.448H1079.54V269.886Z" fill="#A0A0A0" fill-opacity="0.23" mask="url(#path-203-inside-100_743_15513)"/>
<mask id="path-205-inside-101_743_15513" fill="white">
<path d="M0 269.885H53.9771V323.863H0V269.885Z"/>
</mask>
<path d="M53.9771 323.863V324.425H54.5394V323.863H53.9771ZM53.9771 269.885H53.4148V323.863H53.9771H54.5394V269.885H53.9771ZM53.9771 323.863V323.3H0V323.863V324.425H53.9771V323.863Z" fill="#A0A0A0" fill-opacity="0.23" mask="url(#path-205-inside-101_743_15513)"/>
<mask id="path-207-inside-102_743_15513" fill="white">
<path d="M53.9766 269.885H107.954V323.863H53.9766V269.885Z"/>
</mask>
<path d="M107.954 323.863V324.425H108.516V323.863H107.954ZM107.954 269.885H107.391V323.863H107.954H108.516V269.885H107.954ZM107.954 323.863V323.3H53.9766V323.863V324.425H107.954V323.863Z" fill="#A0A0A0" fill-opacity="0.23" mask="url(#path-207-inside-102_743_15513)"/>
<mask id="path-209-inside-103_743_15513" fill="white">
<path d="M107.955 269.885H161.932V323.863H107.955V269.885Z"/>
</mask>
<path d="M161.932 323.863V324.425H162.494V323.863H161.932ZM161.932 269.885H161.37V323.863H161.932H162.494V269.885H161.932ZM161.932 323.863V323.3H107.955V323.863V324.425H161.932V323.863Z" fill="#A0A0A0" fill-opacity="0.23" mask="url(#path-209-inside-103_743_15513)"/>
<mask id="path-211-inside-104_743_15513" fill="white">
<path d="M161.932 269.885H215.909V323.863H161.932V269.885Z"/>
</mask>
<path d="M215.909 323.863V324.425H216.471V323.863H215.909ZM215.909 269.885H215.346V323.863H215.909H216.471V269.885H215.909ZM215.909 323.863V323.3H161.932V323.863V324.425H215.909V323.863Z" fill="#A0A0A0" fill-opacity="0.23" mask="url(#path-211-inside-104_743_15513)"/>
<mask id="path-213-inside-105_743_15513" fill="white">
<path d="M215.908 269.885H269.885V323.863H215.908V269.885Z"/>
</mask>
<path d="M269.885 323.863V324.425H270.448V323.863H269.885ZM269.885 269.885H269.323V323.863H269.885H270.448V269.885H269.885ZM269.885 323.863V323.3H215.908V323.863V324.425H269.885V323.863Z" fill="#A0A0A0" fill-opacity="0.23" mask="url(#path-213-inside-105_743_15513)"/>
<mask id="path-215-inside-106_743_15513" fill="white">
<path d="M269.885 269.885H323.862V323.863H269.885V269.885Z"/>
</mask>
<path d="M269.885 269.885H323.862V323.863H269.885V269.885Z" fill="#B9B1A7" fill-opacity="0.06"/>
<path d="M323.862 323.863V324.425H324.424V323.863H323.862ZM323.862 269.885H323.3V323.863H323.862H324.424V269.885H323.862ZM323.862 323.863V323.3H269.885V323.863V324.425H323.862V323.863Z" fill="#A0A0A0" fill-opacity="0.23" mask="url(#path-215-inside-106_743_15513)"/>
<mask id="path-217-inside-107_743_15513" fill="white">
<path d="M323.863 269.885H377.84V323.863H323.863V269.885Z"/>
</mask>
<path d="M377.84 323.863V324.425H378.403V323.863H377.84ZM377.84 269.885H377.278V323.863H377.84H378.403V269.885H377.84ZM377.84 323.863V323.3H323.863V323.863V324.425H377.84V323.863Z" fill="#A0A0A0" fill-opacity="0.23" mask="url(#path-217-inside-107_743_15513)"/>
<mask id="path-219-inside-108_743_15513" fill="white">
<path d="M377.84 269.885H431.817V323.863H377.84V269.885Z"/>
</mask>
<path d="M431.817 323.863V324.425H432.379V323.863H431.817ZM431.817 269.885H431.255V323.863H431.817H432.379V269.885H431.817ZM431.817 323.863V323.3H377.84V323.863V324.425H431.817V323.863Z" fill="#A0A0A0" fill-opacity="0.23" mask="url(#path-219-inside-108_743_15513)"/>
<mask id="path-221-inside-109_743_15513" fill="white">
<path d="M431.816 269.885H485.794V323.863H431.816V269.885Z"/>
</mask>
<path d="M485.794 323.863V324.425H486.356V323.863H485.794ZM485.794 269.885H485.231V323.863H485.794H486.356V269.885H485.794ZM485.794 323.863V323.3H431.816V323.863V324.425H485.794V323.863Z" fill="#A0A0A0" fill-opacity="0.23" mask="url(#path-221-inside-109_743_15513)"/>
<mask id="path-223-inside-110_743_15513" fill="white">
<path d="M485.795 269.885H539.772V323.863H485.795V269.885Z"/>
</mask>
<path d="M539.772 323.863V324.425H540.334V323.863H539.772ZM539.772 269.885H539.21V323.863H539.772H540.334V269.885H539.772ZM539.772 323.863V323.3H485.795V323.863V324.425H539.772V323.863Z" fill="#A0A0A0" fill-opacity="0.23" mask="url(#path-223-inside-110_743_15513)"/>
<mask id="path-225-inside-111_743_15513" fill="white">
<path d="M539.771 269.885H593.749V323.863H539.771V269.885Z"/>
</mask>
<path d="M593.749 323.863V324.425H594.311V323.863H593.749ZM593.749 269.885H593.186V323.863H593.749H594.311V269.885H593.749ZM593.749 323.863V323.3H539.771V323.863V324.425H593.749V323.863Z" fill="#A0A0A0" fill-opacity="0.23" mask="url(#path-225-inside-111_743_15513)"/>
<mask id="path-227-inside-112_743_15513" fill="white">
<path d="M593.748 269.885H647.725V323.863H593.748V269.885Z"/>
</mask>
<path d="M593.748 269.885H647.725V323.863H593.748V269.885Z" fill="#B9B1A7" fill-opacity="0.06"/>
<path d="M647.725 323.863V324.425H648.287V323.863H647.725ZM647.725 269.885H647.163V323.863H647.725H648.287V269.885H647.725ZM647.725 323.863V323.3H593.748V323.863V324.425H647.725V323.863Z" fill="#A0A0A0" fill-opacity="0.23" mask="url(#path-227-inside-112_743_15513)"/>
<mask id="path-229-inside-113_743_15513" fill="white">
<path d="M647.725 269.885H701.702V323.863H647.725V269.885Z"/>
</mask>
<path d="M701.702 323.863V324.425H702.264V323.863H701.702ZM701.702 269.885H701.139V323.863H701.702H702.264V269.885H701.702ZM701.702 323.863V323.3H647.725V323.863V324.425H701.702V323.863Z" fill="#A0A0A0" fill-opacity="0.23" mask="url(#path-229-inside-113_743_15513)"/>
<mask id="path-231-inside-114_743_15513" fill="white">
<path d="M701.703 269.885H755.68V323.863H701.703V269.885Z"/>
</mask>
<path d="M755.68 323.863V324.425H756.243V323.863H755.68ZM755.68 269.885H755.118V323.863H755.68H756.243V269.885H755.68ZM755.68 323.863V323.3H701.703V323.863V324.425H755.68V323.863Z" fill="#A0A0A0" fill-opacity="0.23" mask="url(#path-231-inside-114_743_15513)"/>
<mask id="path-233-inside-115_743_15513" fill="white">
<path d="M755.68 269.885H809.657V323.863H755.68V269.885Z"/>
</mask>
<path d="M809.657 323.863V324.425H810.219V323.863H809.657ZM809.657 269.885H809.095V323.863H809.657H810.219V269.885H809.657ZM809.657 323.863V323.3H755.68V323.863V324.425H809.657V323.863Z" fill="#A0A0A0" fill-opacity="0.23" mask="url(#path-233-inside-115_743_15513)"/>
<mask id="path-235-inside-116_743_15513" fill="white">
<path d="M809.656 269.885H863.633V323.863H809.656V269.885Z"/>
</mask>
<path d="M863.633 323.863V324.425H864.196V323.863H863.633ZM863.633 269.885H863.071V323.863H863.633H864.196V269.885H863.633ZM863.633 323.863V323.3H809.656V323.863V324.425H863.633V323.863Z" fill="#A0A0A0" fill-opacity="0.23" mask="url(#path-235-inside-116_743_15513)"/>
<mask id="path-237-inside-117_743_15513" fill="white">
<path d="M863.633 269.885H917.61V323.863H863.633V269.885Z"/>
</mask>
<path d="M917.61 323.863V324.425H918.172V323.863H917.61ZM917.61 269.885H917.048V323.863H917.61H918.172V269.885H917.61ZM917.61 323.863V323.3H863.633V323.863V324.425H917.61V323.863Z" fill="#A0A0A0" fill-opacity="0.23" mask="url(#path-237-inside-117_743_15513)"/>
<mask id="path-239-inside-118_743_15513" fill="white">
<path d="M917.611 269.885H971.588V323.863H917.611V269.885Z"/>
</mask>
<path d="M971.588 323.863V324.425H972.151V323.863H971.588ZM971.588 269.885H971.026V323.863H971.588H972.151V269.885H971.588ZM971.588 323.863V323.3H917.611V323.863V324.425H971.588V323.863Z" fill="#A0A0A0" fill-opacity="0.23" mask="url(#path-239-inside-118_743_15513)"/>
<mask id="path-241-inside-119_743_15513" fill="white">
<path d="M971.588 269.885H1025.57V323.863H971.588V269.885Z"/>
</mask>
<path d="M1025.57 323.863V324.425H1026.13V323.863H1025.57ZM1025.57 269.885H1025V323.863H1025.57H1026.13V269.885H1025.57ZM1025.57 323.863V323.3H971.588V323.863V324.425H1025.57V323.863Z" fill="#A0A0A0" fill-opacity="0.23" mask="url(#path-241-inside-119_743_15513)"/>
<mask id="path-243-inside-120_743_15513" fill="white">
<path d="M1025.56 269.885H1079.54V323.863H1025.56V269.885Z"/>
</mask>
<path d="M1079.54 323.863V324.425H1080.1V323.863H1079.54ZM1079.54 269.885H1078.98V323.863H1079.54H1080.1V269.885H1079.54ZM1079.54 323.863V323.3H1025.56V323.863V324.425H1079.54V323.863Z" fill="#A0A0A0" fill-opacity="0.23" mask="url(#path-243-inside-120_743_15513)"/>
<mask id="path-245-inside-121_743_15513" fill="white">
<path d="M0 323.863H53.9771V377.84H0V323.863Z"/>
</mask>
<path d="M53.9771 377.84V378.402H54.5394V377.84H53.9771ZM53.9771 323.863H53.4148V377.84H53.9771H54.5394V323.863H53.9771ZM53.9771 377.84V377.277H0V377.84V378.402H53.9771V377.84Z" fill="#A0A0A0" fill-opacity="0.23" mask="url(#path-245-inside-121_743_15513)"/>
<mask id="path-247-inside-122_743_15513" fill="white">
<path d="M53.9766 323.863H107.954V377.84H53.9766V323.863Z"/>
</mask>
<path d="M107.954 377.84V378.402H108.516V377.84H107.954ZM107.954 323.863H107.391V377.84H107.954H108.516V323.863H107.954ZM107.954 377.84V377.277H53.9766V377.84V378.402H107.954V377.84Z" fill="#A0A0A0" fill-opacity="0.23" mask="url(#path-247-inside-122_743_15513)"/>
<mask id="path-249-inside-123_743_15513" fill="white">
<path d="M107.955 323.863H161.932V377.84H107.955V323.863Z"/>
</mask>
<path d="M161.932 377.84V378.402H162.494V377.84H161.932ZM161.932 323.863H161.37V377.84H161.932H162.494V323.863H161.932ZM161.932 377.84V377.277H107.955V377.84V378.402H161.932V377.84Z" fill="#A0A0A0" fill-opacity="0.23" mask="url(#path-249-inside-123_743_15513)"/>
<mask id="path-251-inside-124_743_15513" fill="white">
<path d="M161.932 323.863H215.909V377.84H161.932V323.863Z"/>
</mask>
<path d="M161.932 323.863H215.909V377.84H161.932V323.863Z" fill="#B9B1A7" fill-opacity="0.06"/>
<path d="M215.909 377.84V378.402H216.471V377.84H215.909ZM215.909 323.863H215.346V377.84H215.909H216.471V323.863H215.909ZM215.909 377.84V377.277H161.932V377.84V378.402H215.909V377.84Z" fill="#A0A0A0" fill-opacity="0.23" mask="url(#path-251-inside-124_743_15513)"/>
<mask id="path-253-inside-125_743_15513" fill="white">
<path d="M215.908 323.863H269.885V377.84H215.908V323.863Z"/>
</mask>
<path d="M269.885 377.84V378.402H270.448V377.84H269.885ZM269.885 323.863H269.323V377.84H269.885H270.448V323.863H269.885ZM269.885 377.84V377.277H215.908V377.84V378.402H269.885V377.84Z" fill="#A0A0A0" fill-opacity="0.23" mask="url(#path-253-inside-125_743_15513)"/>
<mask id="path-255-inside-126_743_15513" fill="white">
<path d="M269.885 323.863H323.862V377.84H269.885V323.863Z"/>
</mask>
<path d="M323.862 377.84V378.402H324.424V377.84H323.862ZM323.862 323.863H323.3V377.84H323.862H324.424V323.863H323.862ZM323.862 377.84V377.277H269.885V377.84V378.402H323.862V377.84Z" fill="#A0A0A0" fill-opacity="0.23" mask="url(#path-255-inside-126_743_15513)"/>
<mask id="path-257-inside-127_743_15513" fill="white">
<path d="M323.863 323.863H377.84V377.84H323.863V323.863Z"/>
</mask>
<path d="M377.84 377.84V378.402H378.403V377.84H377.84ZM377.84 323.863H377.278V377.84H377.84H378.403V323.863H377.84ZM377.84 377.84V377.277H323.863V377.84V378.402H377.84V377.84Z" fill="#A0A0A0" fill-opacity="0.23" mask="url(#path-257-inside-127_743_15513)"/>
<mask id="path-259-inside-128_743_15513" fill="white">
<path d="M377.84 323.863H431.817V377.84H377.84V323.863Z"/>
</mask>
<path d="M431.817 377.84V378.402H432.379V377.84H431.817ZM431.817 323.863H431.255V377.84H431.817H432.379V323.863H431.817ZM431.817 377.84V377.277H377.84V377.84V378.402H431.817V377.84Z" fill="#A0A0A0" fill-opacity="0.23" mask="url(#path-259-inside-128_743_15513)"/>
<mask id="path-261-inside-129_743_15513" fill="white">
<path d="M431.816 323.863H485.794V377.84H431.816V323.863Z"/>
</mask>
<path d="M485.794 377.84V378.402H486.356V377.84H485.794ZM485.794 323.863H485.231V377.84H485.794H486.356V323.863H485.794ZM485.794 377.84V377.277H431.816V377.84V378.402H485.794V377.84Z" fill="#A0A0A0" fill-opacity="0.23" mask="url(#path-261-inside-129_743_15513)"/>
<mask id="path-263-inside-130_743_15513" fill="white">
<path d="M485.795 323.863H539.772V377.84H485.795V323.863Z"/>
</mask>
<path d="M539.772 377.84V378.402H540.334V377.84H539.772ZM539.772 323.863H539.21V377.84H539.772H540.334V323.863H539.772ZM539.772 377.84V377.277H485.795V377.84V378.402H539.772V377.84Z" fill="#A0A0A0" fill-opacity="0.23" mask="url(#path-263-inside-130_743_15513)"/>
<mask id="path-265-inside-131_743_15513" fill="white">
<path d="M539.771 323.863H593.749V377.84H539.771V323.863Z"/>
</mask>
<path d="M593.749 377.84V378.402H594.311V377.84H593.749ZM593.749 323.863H593.186V377.84H593.749H594.311V323.863H593.749ZM593.749 377.84V377.277H539.771V377.84V378.402H593.749V377.84Z" fill="#A0A0A0" fill-opacity="0.23" mask="url(#path-265-inside-131_743_15513)"/>
<mask id="path-267-inside-132_743_15513" fill="white">
<path d="M593.748 323.863H647.725V377.84H593.748V323.863Z"/>
</mask>
<path d="M647.725 377.84V378.402H648.287V377.84H647.725ZM647.725 323.863H647.163V377.84H647.725H648.287V323.863H647.725ZM647.725 377.84V377.277H593.748V377.84V378.402H647.725V377.84Z" fill="#A0A0A0" fill-opacity="0.23" mask="url(#path-267-inside-132_743_15513)"/>
<mask id="path-269-inside-133_743_15513" fill="white">
<path d="M647.725 323.863H701.702V377.84H647.725V323.863Z"/>
</mask>
<path d="M701.702 377.84V378.402H702.264V377.84H701.702ZM701.702 323.863H701.139V377.84H701.702H702.264V323.863H701.702ZM701.702 377.84V377.277H647.725V377.84V378.402H701.702V377.84Z" fill="#A0A0A0" fill-opacity="0.23" mask="url(#path-269-inside-133_743_15513)"/>
<mask id="path-271-inside-134_743_15513" fill="white">
<path d="M701.703 323.863H755.68V377.84H701.703V323.863Z"/>
</mask>
<path d="M755.68 377.84V378.402H756.243V377.84H755.68ZM755.68 323.863H755.118V377.84H755.68H756.243V323.863H755.68ZM755.68 377.84V377.277H701.703V377.84V378.402H755.68V377.84Z" fill="#A0A0A0" fill-opacity="0.23" mask="url(#path-271-inside-134_743_15513)"/>
<mask id="path-273-inside-135_743_15513" fill="white">
<path d="M755.68 323.863H809.657V377.84H755.68V323.863Z"/>
</mask>
<path d="M809.657 377.84V378.402H810.219V377.84H809.657ZM809.657 323.863H809.095V377.84H809.657H810.219V323.863H809.657ZM809.657 377.84V377.277H755.68V377.84V378.402H809.657V377.84Z" fill="#A0A0A0" fill-opacity="0.23" mask="url(#path-273-inside-135_743_15513)"/>
<mask id="path-275-inside-136_743_15513" fill="white">
<path d="M809.656 323.863H863.633V377.84H809.656V323.863Z"/>
</mask>
<path d="M863.633 377.84V378.402H864.196V377.84H863.633ZM863.633 323.863H863.071V377.84H863.633H864.196V323.863H863.633ZM863.633 377.84V377.277H809.656V377.84V378.402H863.633V377.84Z" fill="#A0A0A0" fill-opacity="0.23" mask="url(#path-275-inside-136_743_15513)"/>
<mask id="path-277-inside-137_743_15513" fill="white">
<path d="M863.633 323.863H917.61V377.84H863.633V323.863Z"/>
</mask>
<path d="M863.633 323.863H917.61V377.84H863.633V323.863Z" fill="#B9B1A7" fill-opacity="0.06"/>
<path d="M917.61 377.84V378.402H918.172V377.84H917.61ZM917.61 323.863H917.048V377.84H917.61H918.172V323.863H917.61ZM917.61 377.84V377.277H863.633V377.84V378.402H917.61V377.84Z" fill="#A0A0A0" fill-opacity="0.23" mask="url(#path-277-inside-137_743_15513)"/>
<mask id="path-279-inside-138_743_15513" fill="white">
<path d="M917.611 323.863H971.588V377.84H917.611V323.863Z"/>
</mask>
<path d="M971.588 377.84V378.402H972.151V377.84H971.588ZM971.588 323.863H971.026V377.84H971.588H972.151V323.863H971.588ZM971.588 377.84V377.277H917.611V377.84V378.402H971.588V377.84Z" fill="#A0A0A0" fill-opacity="0.23" mask="url(#path-279-inside-138_743_15513)"/>
<mask id="path-281-inside-139_743_15513" fill="white">
<path d="M971.588 323.863H1025.57V377.84H971.588V323.863Z"/>
</mask>
<path d="M1025.57 377.84V378.402H1026.13V377.84H1025.57ZM1025.57 323.863H1025V377.84H1025.57H1026.13V323.863H1025.57ZM1025.57 377.84V377.277H971.588V377.84V378.402H1025.57V377.84Z" fill="#A0A0A0" fill-opacity="0.23" mask="url(#path-281-inside-139_743_15513)"/>
<mask id="path-283-inside-140_743_15513" fill="white">
<path d="M1025.56 323.863H1079.54V377.84H1025.56V323.863Z"/>
</mask>
<path d="M1079.54 377.84V378.402H1080.1V377.84H1079.54ZM1079.54 323.863H1078.98V377.84H1079.54H1080.1V323.863H1079.54ZM1079.54 377.84V377.277H1025.56V377.84V378.402H1079.54V377.84Z" fill="#A0A0A0" fill-opacity="0.23" mask="url(#path-283-inside-140_743_15513)"/>
<mask id="path-285-inside-141_743_15513" fill="white">
<path d="M0 377.84H53.9771V431.817H0V377.84Z"/>
</mask>
<path d="M53.9771 431.817V432.379H54.5394V431.817H53.9771ZM53.9771 377.84H53.4148V431.817H53.9771H54.5394V377.84H53.9771ZM53.9771 431.817V431.255H0V431.817V432.379H53.9771V431.817Z" fill="#A0A0A0" fill-opacity="0.23" mask="url(#path-285-inside-141_743_15513)"/>
<mask id="path-287-inside-142_743_15513" fill="white">
<path d="M53.9766 377.84H107.954V431.817H53.9766V377.84Z"/>
</mask>
<path d="M107.954 431.817V432.379H108.516V431.817H107.954ZM107.954 377.84H107.391V431.817H107.954H108.516V377.84H107.954ZM107.954 431.817V431.255H53.9766V431.817V432.379H107.954V431.817Z" fill="#A0A0A0" fill-opacity="0.23" mask="url(#path-287-inside-142_743_15513)"/>
<mask id="path-289-inside-143_743_15513" fill="white">
<path d="M107.955 377.84H161.932V431.817H107.955V377.84Z"/>
</mask>
<path d="M161.932 431.817V432.379H162.494V431.817H161.932ZM161.932 377.84H161.37V431.817H161.932H162.494V377.84H161.932ZM161.932 431.817V431.255H107.955V431.817V432.379H161.932V431.817Z" fill="#A0A0A0" fill-opacity="0.23" mask="url(#path-289-inside-143_743_15513)"/>
<mask id="path-291-inside-144_743_15513" fill="white">
<path d="M161.932 377.84H215.909V431.817H161.932V377.84Z"/>
</mask>
<path d="M215.909 431.817V432.379H216.471V431.817H215.909ZM215.909 377.84H215.346V431.817H215.909H216.471V377.84H215.909ZM215.909 431.817V431.255H161.932V431.817V432.379H215.909V431.817Z" fill="#A0A0A0" fill-opacity="0.23" mask="url(#path-291-inside-144_743_15513)"/>
<mask id="path-293-inside-145_743_15513" fill="white">
<path d="M215.908 377.84H269.885V431.817H215.908V377.84Z"/>
</mask>
<path d="M269.885 431.817V432.379H270.448V431.817H269.885ZM269.885 377.84H269.323V431.817H269.885H270.448V377.84H269.885ZM269.885 431.817V431.255H215.908V431.817V432.379H269.885V431.817Z" fill="#A0A0A0" fill-opacity="0.23" mask="url(#path-293-inside-145_743_15513)"/>
<mask id="path-295-inside-146_743_15513" fill="white">
<path d="M269.885 377.84H323.862V431.817H269.885V377.84Z"/>
</mask>
<path d="M323.862 431.817V432.379H324.424V431.817H323.862ZM323.862 377.84H323.3V431.817H323.862H324.424V377.84H323.862ZM323.862 431.817V431.255H269.885V431.817V432.379H323.862V431.817Z" fill="#A0A0A0" fill-opacity="0.23" mask="url(#path-295-inside-146_743_15513)"/>
<mask id="path-297-inside-147_743_15513" fill="white">
<path d="M323.863 377.84H377.84V431.817H323.863V377.84Z"/>
</mask>
<path d="M377.84 431.817V432.379H378.403V431.817H377.84ZM377.84 377.84H377.278V431.817H377.84H378.403V377.84H377.84ZM377.84 431.817V431.255H323.863V431.817V432.379H377.84V431.817Z" fill="#A0A0A0" fill-opacity="0.23" mask="url(#path-297-inside-147_743_15513)"/>
<mask id="path-299-inside-148_743_15513" fill="white">
<path d="M377.84 377.84H431.817V431.817H377.84V377.84Z"/>
</mask>
<path d="M431.817 431.817V432.379H432.379V431.817H431.817ZM431.817 377.84H431.255V431.817H431.817H432.379V377.84H431.817ZM431.817 431.817V431.255H377.84V431.817V432.379H431.817V431.817Z" fill="#A0A0A0" fill-opacity="0.23" mask="url(#path-299-inside-148_743_15513)"/>
<mask id="path-301-inside-149_743_15513" fill="white">
<path d="M431.816 377.84H485.794V431.817H431.816V377.84Z"/>
</mask>
<path d="M431.816 377.84H485.794V431.817H431.816V377.84Z" fill="#B9B1A7" fill-opacity="0.06"/>
<path d="M485.794 431.817V432.379H486.356V431.817H485.794ZM485.794 377.84H485.231V431.817H485.794H486.356V377.84H485.794ZM485.794 431.817V431.255H431.816V431.817V432.379H485.794V431.817Z" fill="#A0A0A0" fill-opacity="0.23" mask="url(#path-301-inside-149_743_15513)"/>
<mask id="path-303-inside-150_743_15513" fill="white">
<path d="M485.795 377.84H539.772V431.817H485.795V377.84Z"/>
</mask>
<path d="M539.772 431.817V432.379H540.334V431.817H539.772ZM539.772 377.84H539.21V431.817H539.772H540.334V377.84H539.772ZM539.772 431.817V431.255H485.795V431.817V432.379H539.772V431.817Z" fill="#A0A0A0" fill-opacity="0.23" mask="url(#path-303-inside-150_743_15513)"/>
<mask id="path-305-inside-151_743_15513" fill="white">
<path d="M539.771 377.84H593.749V431.817H539.771V377.84Z"/>
</mask>
<path d="M593.749 431.817V432.379H594.311V431.817H593.749ZM593.749 377.84H593.186V431.817H593.749H594.311V377.84H593.749ZM593.749 431.817V431.255H539.771V431.817V432.379H593.749V431.817Z" fill="#A0A0A0" fill-opacity="0.23" mask="url(#path-305-inside-151_743_15513)"/>
<mask id="path-307-inside-152_743_15513" fill="white">
<path d="M593.748 377.84H647.725V431.817H593.748V377.84Z"/>
</mask>
<path d="M647.725 431.817V432.379H648.287V431.817H647.725ZM647.725 377.84H647.163V431.817H647.725H648.287V377.84H647.725ZM647.725 431.817V431.255H593.748V431.817V432.379H647.725V431.817Z" fill="#A0A0A0" fill-opacity="0.23" mask="url(#path-307-inside-152_743_15513)"/>
<mask id="path-309-inside-153_743_15513" fill="white">
<path d="M647.725 377.84H701.702V431.817H647.725V377.84Z"/>
</mask>
<path d="M701.702 431.817V432.379H702.264V431.817H701.702ZM701.702 377.84H701.139V431.817H701.702H702.264V377.84H701.702ZM701.702 431.817V431.255H647.725V431.817V432.379H701.702V431.817Z" fill="#A0A0A0" fill-opacity="0.23" mask="url(#path-309-inside-153_743_15513)"/>
<mask id="path-311-inside-154_743_15513" fill="white">
<path d="M701.703 377.84H755.68V431.817H701.703V377.84Z"/>
</mask>
<path d="M755.68 431.817V432.379H756.243V431.817H755.68ZM755.68 377.84H755.118V431.817H755.68H756.243V377.84H755.68ZM755.68 431.817V431.255H701.703V431.817V432.379H755.68V431.817Z" fill="#A0A0A0" fill-opacity="0.23" mask="url(#path-311-inside-154_743_15513)"/>
<mask id="path-313-inside-155_743_15513" fill="white">
<path d="M755.68 377.84H809.657V431.817H755.68V377.84Z"/>
</mask>
<path d="M755.68 377.84H809.657V431.817H755.68V377.84Z" fill="#B9B1A7" fill-opacity="0.06"/>
<path d="M809.657 431.817V432.379H810.219V431.817H809.657ZM809.657 377.84H809.095V431.817H809.657H810.219V377.84H809.657ZM809.657 431.817V431.255H755.68V431.817V432.379H809.657V431.817Z" fill="#A0A0A0" fill-opacity="0.23" mask="url(#path-313-inside-155_743_15513)"/>
<mask id="path-315-inside-156_743_15513" fill="white">
<path d="M809.656 377.84H863.633V431.817H809.656V377.84Z"/>
</mask>
<path d="M863.633 431.817V432.379H864.196V431.817H863.633ZM863.633 377.84H863.071V431.817H863.633H864.196V377.84H863.633ZM863.633 431.817V431.255H809.656V431.817V432.379H863.633V431.817Z" fill="#A0A0A0" fill-opacity="0.23" mask="url(#path-315-inside-156_743_15513)"/>
<mask id="path-317-inside-157_743_15513" fill="white">
<path d="M863.633 377.84H917.61V431.817H863.633V377.84Z"/>
</mask>
<path d="M917.61 431.817V432.379H918.172V431.817H917.61ZM917.61 377.84H917.048V431.817H917.61H918.172V377.84H917.61ZM917.61 431.817V431.255H863.633V431.817V432.379H917.61V431.817Z" fill="#A0A0A0" fill-opacity="0.23" mask="url(#path-317-inside-157_743_15513)"/>
<mask id="path-319-inside-158_743_15513" fill="white">
<path d="M917.611 377.84H971.588V431.817H917.611V377.84Z"/>
</mask>
<path d="M971.588 431.817V432.379H972.151V431.817H971.588ZM971.588 377.84H971.026V431.817H971.588H972.151V377.84H971.588ZM971.588 431.817V431.255H917.611V431.817V432.379H971.588V431.817Z" fill="#A0A0A0" fill-opacity="0.23" mask="url(#path-319-inside-158_743_15513)"/>
<mask id="path-321-inside-159_743_15513" fill="white">
<path d="M971.588 377.84H1025.57V431.817H971.588V377.84Z"/>
</mask>
<path d="M1025.57 431.817V432.379H1026.13V431.817H1025.57ZM1025.57 377.84H1025V431.817H1025.57H1026.13V377.84H1025.57ZM1025.57 431.817V431.255H971.588V431.817V432.379H1025.57V431.817Z" fill="#A0A0A0" fill-opacity="0.23" mask="url(#path-321-inside-159_743_15513)"/>
<mask id="path-323-inside-160_743_15513" fill="white">
<path d="M1025.56 377.84H1079.54V431.817H1025.56V377.84Z"/>
</mask>
<path d="M1079.54 431.817V432.379H1080.1V431.817H1079.54ZM1079.54 377.84H1078.98V431.817H1079.54H1080.1V377.84H1079.54ZM1079.54 431.817V431.255H1025.56V431.817V432.379H1079.54V431.817Z" fill="#A0A0A0" fill-opacity="0.23" mask="url(#path-323-inside-160_743_15513)"/>
<mask id="path-325-inside-161_743_15513" fill="white">
<path d="M0 431.817H53.9771V485.794H0V431.817Z"/>
</mask>
<path d="M53.9771 485.794V486.356H54.5394V485.794H53.9771ZM53.9771 431.817H53.4148V485.794H53.9771H54.5394V431.817H53.9771ZM53.9771 485.794V485.232H0V485.794V486.356H53.9771V485.794Z" fill="#A0A0A0" fill-opacity="0.23" mask="url(#path-325-inside-161_743_15513)"/>
<mask id="path-327-inside-162_743_15513" fill="white">
<path d="M53.9766 431.817H107.954V485.794H53.9766V431.817Z"/>
</mask>
<path d="M107.954 485.794V486.356H108.516V485.794H107.954ZM107.954 431.817H107.391V485.794H107.954H108.516V431.817H107.954ZM107.954 485.794V485.232H53.9766V485.794V486.356H107.954V485.794Z" fill="#A0A0A0" fill-opacity="0.23" mask="url(#path-327-inside-162_743_15513)"/>
<mask id="path-329-inside-163_743_15513" fill="white">
<path d="M107.955 431.817H161.932V485.794H107.955V431.817Z"/>
</mask>
<path d="M161.932 485.794V486.356H162.494V485.794H161.932ZM161.932 431.817H161.37V485.794H161.932H162.494V431.817H161.932ZM161.932 485.794V485.232H107.955V485.794V486.356H161.932V485.794Z" fill="#A0A0A0" fill-opacity="0.23" mask="url(#path-329-inside-163_743_15513)"/>
<mask id="path-331-inside-164_743_15513" fill="white">
<path d="M161.932 431.817H215.909V485.794H161.932V431.817Z"/>
</mask>
<path d="M215.909 485.794V486.356H216.471V485.794H215.909ZM215.909 431.817H215.346V485.794H215.909H216.471V431.817H215.909ZM215.909 485.794V485.232H161.932V485.794V486.356H215.909V485.794Z" fill="#A0A0A0" fill-opacity="0.23" mask="url(#path-331-inside-164_743_15513)"/>
<mask id="path-333-inside-165_743_15513" fill="white">
<path d="M215.908 431.817H269.885V485.794H215.908V431.817Z"/>
</mask>
<path d="M269.885 485.794V486.356H270.448V485.794H269.885ZM269.885 431.817H269.323V485.794H269.885H270.448V431.817H269.885ZM269.885 485.794V485.232H215.908V485.794V486.356H269.885V485.794Z" fill="#A0A0A0" fill-opacity="0.23" mask="url(#path-333-inside-165_743_15513)"/>
<mask id="path-335-inside-166_743_15513" fill="white">
<path d="M269.885 431.817H323.862V485.794H269.885V431.817Z"/>
</mask>
<path d="M269.885 431.817H323.862V485.794H269.885V431.817Z" fill="#B9B1A7" fill-opacity="0.06"/>
<path d="M323.862 485.794V486.356H324.424V485.794H323.862ZM323.862 431.817H323.3V485.794H323.862H324.424V431.817H323.862ZM323.862 485.794V485.232H269.885V485.794V486.356H323.862V485.794Z" fill="#A0A0A0" fill-opacity="0.23" mask="url(#path-335-inside-166_743_15513)"/>
<mask id="path-337-inside-167_743_15513" fill="white">
<path d="M323.863 431.817H377.84V485.794H323.863V431.817Z"/>
</mask>
<path d="M377.84 485.794V486.356H378.403V485.794H377.84ZM377.84 431.817H377.278V485.794H377.84H378.403V431.817H377.84ZM377.84 485.794V485.232H323.863V485.794V486.356H377.84V485.794Z" fill="#A0A0A0" fill-opacity="0.23" mask="url(#path-337-inside-167_743_15513)"/>
<mask id="path-339-inside-168_743_15513" fill="white">
<path d="M377.84 431.817H431.817V485.794H377.84V431.817Z"/>
</mask>
<path d="M431.817 485.794V486.356H432.379V485.794H431.817ZM431.817 431.817H431.255V485.794H431.817H432.379V431.817H431.817ZM431.817 485.794V485.232H377.84V485.794V486.356H431.817V485.794Z" fill="#A0A0A0" fill-opacity="0.23" mask="url(#path-339-inside-168_743_15513)"/>
<mask id="path-341-inside-169_743_15513" fill="white">
<path d="M431.816 431.817H485.794V485.794H431.816V431.817Z"/>
</mask>
<path d="M485.794 485.794V486.356H486.356V485.794H485.794ZM485.794 431.817H485.231V485.794H485.794H486.356V431.817H485.794ZM485.794 485.794V485.232H431.816V485.794V486.356H485.794V485.794Z" fill="#A0A0A0" fill-opacity="0.23" mask="url(#path-341-inside-169_743_15513)"/>
<mask id="path-343-inside-170_743_15513" fill="white">
<path d="M485.795 431.817H539.772V485.794H485.795V431.817Z"/>
</mask>
<path d="M539.772 485.794V486.356H540.334V485.794H539.772ZM539.772 431.817H539.21V485.794H539.772H540.334V431.817H539.772ZM539.772 485.794V485.232H485.795V485.794V486.356H539.772V485.794Z" fill="#A0A0A0" fill-opacity="0.23" mask="url(#path-343-inside-170_743_15513)"/>
<mask id="path-345-inside-171_743_15513" fill="white">
<path d="M539.771 431.817H593.749V485.794H539.771V431.817Z"/>
</mask>
<path d="M593.749 485.794V486.356H594.311V485.794H593.749ZM593.749 431.817H593.186V485.794H593.749H594.311V431.817H593.749ZM593.749 485.794V485.232H539.771V485.794V486.356H593.749V485.794Z" fill="#A0A0A0" fill-opacity="0.23" mask="url(#path-345-inside-171_743_15513)"/>
<mask id="path-347-inside-172_743_15513" fill="white">
<path d="M593.748 431.817H647.725V485.794H593.748V431.817Z"/>
</mask>
<path d="M593.748 431.817H647.725V485.794H593.748V431.817Z" fill="#B9B1A7" fill-opacity="0.06"/>
<path d="M647.725 485.794V486.356H648.287V485.794H647.725ZM647.725 431.817H647.163V485.794H647.725H648.287V431.817H647.725ZM647.725 485.794V485.232H593.748V485.794V486.356H647.725V485.794Z" fill="#A0A0A0" fill-opacity="0.23" mask="url(#path-347-inside-172_743_15513)"/>
<mask id="path-349-inside-173_743_15513" fill="white">
<path d="M647.725 431.817H701.702V485.794H647.725V431.817Z"/>
</mask>
<path d="M701.702 485.794V486.356H702.264V485.794H701.702ZM701.702 431.817H701.139V485.794H701.702H702.264V431.817H701.702ZM701.702 485.794V485.232H647.725V485.794V486.356H701.702V485.794Z" fill="#A0A0A0" fill-opacity="0.23" mask="url(#path-349-inside-173_743_15513)"/>
<mask id="path-351-inside-174_743_15513" fill="white">
<path d="M701.703 431.817H755.68V485.794H701.703V431.817Z"/>
</mask>
<path d="M755.68 485.794V486.356H756.243V485.794H755.68ZM755.68 431.817H755.118V485.794H755.68H756.243V431.817H755.68ZM755.68 485.794V485.232H701.703V485.794V486.356H755.68V485.794Z" fill="#A0A0A0" fill-opacity="0.23" mask="url(#path-351-inside-174_743_15513)"/>
<mask id="path-353-inside-175_743_15513" fill="white">
<path d="M755.68 431.817H809.657V485.794H755.68V431.817Z"/>
</mask>
<path d="M809.657 485.794V486.356H810.219V485.794H809.657ZM809.657 431.817H809.095V485.794H809.657H810.219V431.817H809.657ZM809.657 485.794V485.232H755.68V485.794V486.356H809.657V485.794Z" fill="#A0A0A0" fill-opacity="0.23" mask="url(#path-353-inside-175_743_15513)"/>
<mask id="path-355-inside-176_743_15513" fill="white">
<path d="M809.656 431.817H863.633V485.794H809.656V431.817Z"/>
</mask>
<path d="M863.633 485.794V486.356H864.196V485.794H863.633ZM863.633 431.817H863.071V485.794H863.633H864.196V431.817H863.633ZM863.633 485.794V485.232H809.656V485.794V486.356H863.633V485.794Z" fill="#A0A0A0" fill-opacity="0.23" mask="url(#path-355-inside-176_743_15513)"/>
<mask id="path-357-inside-177_743_15513" fill="white">
<path d="M863.633 431.817H917.61V485.794H863.633V431.817Z"/>
</mask>
<path d="M917.61 485.794V486.356H918.172V485.794H917.61ZM917.61 431.817H917.048V485.794H917.61H918.172V431.817H917.61ZM917.61 485.794V485.232H863.633V485.794V486.356H917.61V485.794Z" fill="#A0A0A0" fill-opacity="0.23" mask="url(#path-357-inside-177_743_15513)"/>
<mask id="path-359-inside-178_743_15513" fill="white">
<path d="M917.611 431.817H971.588V485.794H917.611V431.817Z"/>
</mask>
<path d="M971.588 485.794V486.356H972.151V485.794H971.588ZM971.588 431.817H971.026V485.794H971.588H972.151V431.817H971.588ZM971.588 485.794V485.232H917.611V485.794V486.356H971.588V485.794Z" fill="#A0A0A0" fill-opacity="0.23" mask="url(#path-359-inside-178_743_15513)"/>
<mask id="path-361-inside-179_743_15513" fill="white">
<path d="M971.588 431.817H1025.57V485.794H971.588V431.817Z"/>
</mask>
<path d="M1025.57 485.794V486.356H1026.13V485.794H1025.57ZM1025.57 431.817H1025V485.794H1025.57H1026.13V431.817H1025.57ZM1025.57 485.794V485.232H971.588V485.794V486.356H1025.57V485.794Z" fill="#A0A0A0" fill-opacity="0.23" mask="url(#path-361-inside-179_743_15513)"/>
<mask id="path-363-inside-180_743_15513" fill="white">
<path d="M1025.56 431.817H1079.54V485.794H1025.56V431.817Z"/>
</mask>
<path d="M1079.54 485.794V486.356H1080.1V485.794H1079.54ZM1079.54 431.817H1078.98V485.794H1079.54H1080.1V431.817H1079.54ZM1079.54 485.794V485.232H1025.56V485.794V486.356H1079.54V485.794Z" fill="#A0A0A0" fill-opacity="0.23" mask="url(#path-363-inside-180_743_15513)"/>
<mask id="path-365-inside-181_743_15513" fill="white">
<path d="M0 485.794H53.9771V539.771H0V485.794Z"/>
</mask>
<path d="M53.9771 539.771V540.333H54.5394V539.771H53.9771ZM53.9771 485.794H53.4148V539.771H53.9771H54.5394V485.794H53.9771ZM53.9771 539.771V539.209H0V539.771V540.333H53.9771V539.771Z" fill="#A0A0A0" fill-opacity="0.23" mask="url(#path-365-inside-181_743_15513)"/>
<mask id="path-367-inside-182_743_15513" fill="white">
<path d="M53.9766 485.794H107.954V539.771H53.9766V485.794Z"/>
</mask>
<path d="M53.9766 485.794H107.954V539.771H53.9766V485.794Z" fill="#B9B1A7" fill-opacity="0.06"/>
<path d="M107.954 539.771V540.333H108.516V539.771H107.954ZM107.954 485.794H107.391V539.771H107.954H108.516V485.794H107.954ZM107.954 539.771V539.209H53.9766V539.771V540.333H107.954V539.771Z" fill="#A0A0A0" fill-opacity="0.23" mask="url(#path-367-inside-182_743_15513)"/>
<mask id="path-369-inside-183_743_15513" fill="white">
<path d="M107.955 485.794H161.932V539.771H107.955V485.794Z"/>
</mask>
<path d="M161.932 539.771V540.333H162.494V539.771H161.932ZM161.932 485.794H161.37V539.771H161.932H162.494V485.794H161.932ZM161.932 539.771V539.209H107.955V539.771V540.333H161.932V539.771Z" fill="#A0A0A0" fill-opacity="0.23" mask="url(#path-369-inside-183_743_15513)"/>
<mask id="path-371-inside-184_743_15513" fill="white">
<path d="M161.932 485.794H215.909V539.771H161.932V485.794Z"/>
</mask>
<path d="M215.909 539.771V540.333H216.471V539.771H215.909ZM215.909 485.794H215.346V539.771H215.909H216.471V485.794H215.909ZM215.909 539.771V539.209H161.932V539.771V540.333H215.909V539.771Z" fill="#A0A0A0" fill-opacity="0.23" mask="url(#path-371-inside-184_743_15513)"/>
<mask id="path-373-inside-185_743_15513" fill="white">
<path d="M215.908 485.794H269.885V539.771H215.908V485.794Z"/>
</mask>
<path d="M269.885 539.771V540.333H270.448V539.771H269.885ZM269.885 485.794H269.323V539.771H269.885H270.448V485.794H269.885ZM269.885 539.771V539.209H215.908V539.771V540.333H269.885V539.771Z" fill="#A0A0A0" fill-opacity="0.23" mask="url(#path-373-inside-185_743_15513)"/>
<mask id="path-375-inside-186_743_15513" fill="white">
<path d="M269.885 485.794H323.862V539.771H269.885V485.794Z"/>
</mask>
<path d="M323.862 539.771V540.333H324.424V539.771H323.862ZM323.862 485.794H323.3V539.771H323.862H324.424V485.794H323.862ZM323.862 539.771V539.209H269.885V539.771V540.333H323.862V539.771Z" fill="#A0A0A0" fill-opacity="0.23" mask="url(#path-375-inside-186_743_15513)"/>
<mask id="path-377-inside-187_743_15513" fill="white">
<path d="M323.863 485.794H377.84V539.771H323.863V485.794Z"/>
</mask>
<path d="M377.84 539.771V540.333H378.403V539.771H377.84ZM377.84 485.794H377.278V539.771H377.84H378.403V485.794H377.84ZM377.84 539.771V539.209H323.863V539.771V540.333H377.84V539.771Z" fill="#A0A0A0" fill-opacity="0.23" mask="url(#path-377-inside-187_743_15513)"/>
<mask id="path-379-inside-188_743_15513" fill="white">
<path d="M377.84 485.794H431.817V539.771H377.84V485.794Z"/>
</mask>
<path d="M431.817 539.771V540.333H432.379V539.771H431.817ZM431.817 485.794H431.255V539.771H431.817H432.379V485.794H431.817ZM431.817 539.771V539.209H377.84V539.771V540.333H431.817V539.771Z" fill="#A0A0A0" fill-opacity="0.23" mask="url(#path-379-inside-188_743_15513)"/>
<mask id="path-381-inside-189_743_15513" fill="white">
<path d="M431.816 485.794H485.794V539.771H431.816V485.794Z"/>
</mask>
<path d="M485.794 539.771V540.333H486.356V539.771H485.794ZM485.794 485.794H485.231V539.771H485.794H486.356V485.794H485.794ZM485.794 539.771V539.209H431.816V539.771V540.333H485.794V539.771Z" fill="#A0A0A0" fill-opacity="0.23" mask="url(#path-381-inside-189_743_15513)"/>
<mask id="path-383-inside-190_743_15513" fill="white">
<path d="M485.795 485.794H539.772V539.771H485.795V485.794Z"/>
</mask>
<path d="M539.772 539.771V540.333H540.334V539.771H539.772ZM539.772 485.794H539.21V539.771H539.772H540.334V485.794H539.772ZM539.772 539.771V539.209H485.795V539.771V540.333H539.772V539.771Z" fill="#A0A0A0" fill-opacity="0.23" mask="url(#path-383-inside-190_743_15513)"/>
<mask id="path-385-inside-191_743_15513" fill="white">
<path d="M539.771 485.794H593.749V539.771H539.771V485.794Z"/>
</mask>
<path d="M593.749 539.771V540.333H594.311V539.771H593.749ZM593.749 485.794H593.186V539.771H593.749H594.311V485.794H593.749ZM593.749 539.771V539.209H539.771V539.771V540.333H593.749V539.771Z" fill="#A0A0A0" fill-opacity="0.23" mask="url(#path-385-inside-191_743_15513)"/>
<mask id="path-387-inside-192_743_15513" fill="white">
<path d="M593.748 485.794H647.725V539.771H593.748V485.794Z"/>
</mask>
<path d="M647.725 539.771V540.333H648.287V539.771H647.725ZM647.725 485.794H647.163V539.771H647.725H648.287V485.794H647.725ZM647.725 539.771V539.209H593.748V539.771V540.333H647.725V539.771Z" fill="#A0A0A0" fill-opacity="0.23" mask="url(#path-387-inside-192_743_15513)"/>
<mask id="path-389-inside-193_743_15513" fill="white">
<path d="M647.725 485.794H701.702V539.771H647.725V485.794Z"/>
</mask>
<path d="M701.702 539.771V540.333H702.264V539.771H701.702ZM701.702 485.794H701.139V539.771H701.702H702.264V485.794H701.702ZM701.702 539.771V539.209H647.725V539.771V540.333H701.702V539.771Z" fill="#A0A0A0" fill-opacity="0.23" mask="url(#path-389-inside-193_743_15513)"/>
<mask id="path-391-inside-194_743_15513" fill="white">
<path d="M701.703 485.794H755.68V539.771H701.703V485.794Z"/>
</mask>
<path d="M755.68 539.771V540.333H756.243V539.771H755.68ZM755.68 485.794H755.118V539.771H755.68H756.243V485.794H755.68ZM755.68 539.771V539.209H701.703V539.771V540.333H755.68V539.771Z" fill="#A0A0A0" fill-opacity="0.23" mask="url(#path-391-inside-194_743_15513)"/>
<mask id="path-393-inside-195_743_15513" fill="white">
<path d="M755.68 485.794H809.657V539.771H755.68V485.794Z"/>
</mask>
<path d="M809.657 539.771V540.333H810.219V539.771H809.657ZM809.657 485.794H809.095V539.771H809.657H810.219V485.794H809.657ZM809.657 539.771V539.209H755.68V539.771V540.333H809.657V539.771Z" fill="#A0A0A0" fill-opacity="0.23" mask="url(#path-393-inside-195_743_15513)"/>
<mask id="path-395-inside-196_743_15513" fill="white">
<path d="M809.656 485.794H863.633V539.771H809.656V485.794Z"/>
</mask>
<path d="M863.633 539.771V540.333H864.196V539.771H863.633ZM863.633 485.794H863.071V539.771H863.633H864.196V485.794H863.633ZM863.633 539.771V539.209H809.656V539.771V540.333H863.633V539.771Z" fill="#A0A0A0" fill-opacity="0.23" mask="url(#path-395-inside-196_743_15513)"/>
<mask id="path-397-inside-197_743_15513" fill="white">
<path d="M863.633 485.794H917.61V539.771H863.633V485.794Z"/>
</mask>
<path d="M917.61 539.771V540.333H918.172V539.771H917.61ZM917.61 485.794H917.048V539.771H917.61H918.172V485.794H917.61ZM917.61 539.771V539.209H863.633V539.771V540.333H917.61V539.771Z" fill="#A0A0A0" fill-opacity="0.23" mask="url(#path-397-inside-197_743_15513)"/>
<mask id="path-399-inside-198_743_15513" fill="white">
<path d="M917.611 485.794H971.588V539.771H917.611V485.794Z"/>
</mask>
<path d="M917.611 485.794H971.588V539.771H917.611V485.794Z" fill="#B9B1A7" fill-opacity="0.06"/>
<path d="M971.588 539.771V540.333H972.151V539.771H971.588ZM971.588 485.794H971.026V539.771H971.588H972.151V485.794H971.588ZM971.588 539.771V539.209H917.611V539.771V540.333H971.588V539.771Z" fill="#A0A0A0" fill-opacity="0.23" mask="url(#path-399-inside-198_743_15513)"/>
<mask id="path-401-inside-199_743_15513" fill="white">
<path d="M971.588 485.794H1025.57V539.771H971.588V485.794Z"/>
</mask>
<path d="M1025.57 539.771V540.333H1026.13V539.771H1025.57ZM1025.57 485.794H1025V539.771H1025.57H1026.13V485.794H1025.57ZM1025.57 539.771V539.209H971.588V539.771V540.333H1025.57V539.771Z" fill="#A0A0A0" fill-opacity="0.23" mask="url(#path-401-inside-199_743_15513)"/>
<mask id="path-403-inside-200_743_15513" fill="white">
<path d="M1025.56 485.794H1079.54V539.771H1025.56V485.794Z"/>
</mask>
<path d="M1079.54 539.771V540.333H1080.1V539.771H1079.54ZM1079.54 485.794H1078.98V539.771H1079.54H1080.1V485.794H1079.54ZM1079.54 539.771V539.209H1025.56V539.771V540.333H1079.54V539.771Z" fill="#A0A0A0" fill-opacity="0.23" mask="url(#path-403-inside-200_743_15513)"/>
<mask id="path-405-inside-201_743_15513" fill="white">
<path d="M0 539.771H53.9771V593.748H0V539.771Z"/>
</mask>
<path d="M53.9771 593.748V594.31H54.5394V593.748H53.9771ZM53.9771 539.771H53.4148V593.748H53.9771H54.5394V539.771H53.9771ZM53.9771 593.748V593.186H0V593.748V594.31H53.9771V593.748Z" fill="#A0A0A0" fill-opacity="0.23" mask="url(#path-405-inside-201_743_15513)"/>
<mask id="path-407-inside-202_743_15513" fill="white">
<path d="M53.9766 539.771H107.954V593.748H53.9766V539.771Z"/>
</mask>
<path d="M107.954 593.748V594.31H108.516V593.748H107.954ZM107.954 539.771H107.391V593.748H107.954H108.516V539.771H107.954ZM107.954 593.748V593.186H53.9766V593.748V594.31H107.954V593.748Z" fill="#A0A0A0" fill-opacity="0.23" mask="url(#path-407-inside-202_743_15513)"/>
<mask id="path-409-inside-203_743_15513" fill="white">
<path d="M107.955 539.771H161.932V593.748H107.955V539.771Z"/>
</mask>
<path d="M161.932 593.748V594.31H162.494V593.748H161.932ZM161.932 539.771H161.37V593.748H161.932H162.494V539.771H161.932ZM161.932 593.748V593.186H107.955V593.748V594.31H161.932V593.748Z" fill="#A0A0A0" fill-opacity="0.23" mask="url(#path-409-inside-203_743_15513)"/>
<mask id="path-411-inside-204_743_15513" fill="white">
<path d="M161.932 539.771H215.909V593.748H161.932V539.771Z"/>
</mask>
<path d="M215.909 593.748V594.31H216.471V593.748H215.909ZM215.909 539.771H215.346V593.748H215.909H216.471V539.771H215.909ZM215.909 593.748V593.186H161.932V593.748V594.31H215.909V593.748Z" fill="#A0A0A0" fill-opacity="0.23" mask="url(#path-411-inside-204_743_15513)"/>
<mask id="path-413-inside-205_743_15513" fill="white">
<path d="M215.908 539.771H269.885V593.748H215.908V539.771Z"/>
</mask>
<path d="M269.885 593.748V594.31H270.448V593.748H269.885ZM269.885 539.771H269.323V593.748H269.885H270.448V539.771H269.885ZM269.885 593.748V593.186H215.908V593.748V594.31H269.885V593.748Z" fill="#A0A0A0" fill-opacity="0.23" mask="url(#path-413-inside-205_743_15513)"/>
<mask id="path-415-inside-206_743_15513" fill="white">
<path d="M269.885 539.771H323.862V593.748H269.885V539.771Z"/>
</mask>
<path d="M323.862 593.748V594.31H324.424V593.748H323.862ZM323.862 539.771H323.3V593.748H323.862H324.424V539.771H323.862ZM323.862 593.748V593.186H269.885V593.748V594.31H323.862V593.748Z" fill="#A0A0A0" fill-opacity="0.23" mask="url(#path-415-inside-206_743_15513)"/>
<mask id="path-417-inside-207_743_15513" fill="white">
<path d="M323.863 539.771H377.84V593.748H323.863V539.771Z"/>
</mask>
<path d="M323.863 539.771H377.84V593.748H323.863V539.771Z" fill="#B9B1A7" fill-opacity="0.06"/>
<path d="M377.84 593.748V594.31H378.403V593.748H377.84ZM377.84 539.771H377.278V593.748H377.84H378.403V539.771H377.84ZM377.84 593.748V593.186H323.863V593.748V594.31H377.84V593.748Z" fill="#A0A0A0" fill-opacity="0.23" mask="url(#path-417-inside-207_743_15513)"/>
<mask id="path-419-inside-208_743_15513" fill="white">
<path d="M377.84 539.771H431.817V593.748H377.84V539.771Z"/>
</mask>
<path d="M431.817 593.748V594.31H432.379V593.748H431.817ZM431.817 539.771H431.255V593.748H431.817H432.379V539.771H431.817ZM431.817 593.748V593.186H377.84V593.748V594.31H431.817V593.748Z" fill="#A0A0A0" fill-opacity="0.23" mask="url(#path-419-inside-208_743_15513)"/>
<mask id="path-421-inside-209_743_15513" fill="white">
<path d="M431.816 539.771H485.794V593.748H431.816V539.771Z"/>
</mask>
<path d="M485.794 593.748V594.31H486.356V593.748H485.794ZM485.794 539.771H485.231V593.748H485.794H486.356V539.771H485.794ZM485.794 593.748V593.186H431.816V593.748V594.31H485.794V593.748Z" fill="#A0A0A0" fill-opacity="0.23" mask="url(#path-421-inside-209_743_15513)"/>
<mask id="path-423-inside-210_743_15513" fill="white">
<path d="M485.795 539.771H539.772V593.748H485.795V539.771Z"/>
</mask>
<path d="M539.772 593.748V594.31H540.334V593.748H539.772ZM539.772 539.771H539.21V593.748H539.772H540.334V539.771H539.772ZM539.772 593.748V593.186H485.795V593.748V594.31H539.772V593.748Z" fill="#A0A0A0" fill-opacity="0.23" mask="url(#path-423-inside-210_743_15513)"/>
<mask id="path-425-inside-211_743_15513" fill="white">
<path d="M539.771 539.771H593.749V593.748H539.771V539.771Z"/>
</mask>
<path d="M539.771 539.771H593.749V593.748H539.771V539.771Z" fill="#B9B1A7" fill-opacity="0.06"/>
<path d="M593.749 593.748V594.31H594.311V593.748H593.749ZM593.749 539.771H593.186V593.748H593.749H594.311V539.771H593.749ZM593.749 593.748V593.186H539.771V593.748V594.31H593.749V593.748Z" fill="#A0A0A0" fill-opacity="0.23" mask="url(#path-425-inside-211_743_15513)"/>
<mask id="path-427-inside-212_743_15513" fill="white">
<path d="M593.748 539.771H647.725V593.748H593.748V539.771Z"/>
</mask>
<path d="M647.725 593.748V594.31H648.287V593.748H647.725ZM647.725 539.771H647.163V593.748H647.725H648.287V539.771H647.725ZM647.725 593.748V593.186H593.748V593.748V594.31H647.725V593.748Z" fill="#A0A0A0" fill-opacity="0.23" mask="url(#path-427-inside-212_743_15513)"/>
<mask id="path-429-inside-213_743_15513" fill="white">
<path d="M647.725 539.771H701.702V593.748H647.725V539.771Z"/>
</mask>
<path d="M701.702 593.748V594.31H702.264V593.748H701.702ZM701.702 539.771H701.139V593.748H701.702H702.264V539.771H701.702ZM701.702 593.748V593.186H647.725V593.748V594.31H701.702V593.748Z" fill="#A0A0A0" fill-opacity="0.23" mask="url(#path-429-inside-213_743_15513)"/>
<mask id="path-431-inside-214_743_15513" fill="white">
<path d="M701.703 539.771H755.68V593.748H701.703V539.771Z"/>
</mask>
<path d="M755.68 593.748V594.31H756.243V593.748H755.68ZM755.68 539.771H755.118V593.748H755.68H756.243V539.771H755.68ZM755.68 593.748V593.186H701.703V593.748V594.31H755.68V593.748Z" fill="#A0A0A0" fill-opacity="0.23" mask="url(#path-431-inside-214_743_15513)"/>
<mask id="path-433-inside-215_743_15513" fill="white">
<path d="M755.68 539.771H809.657V593.748H755.68V539.771Z"/>
</mask>
<path d="M809.657 593.748V594.31H810.219V593.748H809.657ZM809.657 539.771H809.095V593.748H809.657H810.219V539.771H809.657ZM809.657 593.748V593.186H755.68V593.748V594.31H809.657V593.748Z" fill="#A0A0A0" fill-opacity="0.23" mask="url(#path-433-inside-215_743_15513)"/>
<mask id="path-435-inside-216_743_15513" fill="white">
<path d="M809.656 539.771H863.633V593.748H809.656V539.771Z"/>
</mask>
<path d="M863.633 593.748V594.31H864.196V593.748H863.633ZM863.633 539.771H863.071V593.748H863.633H864.196V539.771H863.633ZM863.633 593.748V593.186H809.656V593.748V594.31H863.633V593.748Z" fill="#A0A0A0" fill-opacity="0.23" mask="url(#path-435-inside-216_743_15513)"/>
<mask id="path-437-inside-217_743_15513" fill="white">
<path d="M863.633 539.771H917.61V593.748H863.633V539.771Z"/>
</mask>
<path d="M917.61 593.748V594.31H918.172V593.748H917.61ZM917.61 539.771H917.048V593.748H917.61H918.172V539.771H917.61ZM917.61 593.748V593.186H863.633V593.748V594.31H917.61V593.748Z" fill="#A0A0A0" fill-opacity="0.23" mask="url(#path-437-inside-217_743_15513)"/>
<mask id="path-439-inside-218_743_15513" fill="white">
<path d="M917.611 539.771H971.588V593.748H917.611V539.771Z"/>
</mask>
<path d="M971.588 593.748V594.31H972.151V593.748H971.588ZM971.588 539.771H971.026V593.748H971.588H972.151V539.771H971.588ZM971.588 593.748V593.186H917.611V593.748V594.31H971.588V593.748Z" fill="#A0A0A0" fill-opacity="0.23" mask="url(#path-439-inside-218_743_15513)"/>
<mask id="path-441-inside-219_743_15513" fill="white">
<path d="M971.588 539.771H1025.57V593.748H971.588V539.771Z"/>
</mask>
<path d="M1025.57 593.748V594.31H1026.13V593.748H1025.57ZM1025.57 539.771H1025V593.748H1025.57H1026.13V539.771H1025.57ZM1025.57 593.748V593.186H971.588V593.748V594.31H1025.57V593.748Z" fill="#A0A0A0" fill-opacity="0.23" mask="url(#path-441-inside-219_743_15513)"/>
<mask id="path-443-inside-220_743_15513" fill="white">
<path d="M1025.56 539.771H1079.54V593.748H1025.56V539.771Z"/>
</mask>
<path d="M1079.54 593.748V594.31H1080.1V593.748H1079.54ZM1079.54 539.771H1078.98V593.748H1079.54H1080.1V539.771H1079.54ZM1079.54 593.748V593.186H1025.56V593.748V594.31H1079.54V593.748Z" fill="#A0A0A0" fill-opacity="0.23" mask="url(#path-443-inside-220_743_15513)"/>
</g>
<rect x="0.281131" y="0.281131" width="1078.98" height="571.266" stroke="#A0A0A0" stroke-opacity="0.23" stroke-width="0.562262"/>
<defs>
<clipPath id="clip0_743_15513">
<rect width="1079.54" height="571.828" fill="white"/>
</clipPath>
<clipPath id="clip1_743_15513">
<path d="M215.908 53.9771H269.885V107.954H215.908V53.9771Z" fill="white"/>
</clipPath>
<clipPath id="clip2_743_15513">
<path d="M161.932 107.954H215.909V161.931H161.932V107.954Z" fill="white"/>
</clipPath>
</defs>
</svg>
